<?xml version="1.0" encoding="UTF-8"?>
<svg version="1.1" xmlns="http://www.w3.org/2000/svg" width="128" height="72">
<path d="M0 0 C42.24 0 84.48 0 128 0 C128 23.76 128 47.52 128 72 C85.76 72 43.52 72 0 72 C0 48.24 0 24.48 0 0 Z " fill="#135CCE" transform="translate(0,0)"/>
<path d="M0 0 C42.24 0 84.48 0 128 0 C128 23.76 128 47.52 128 72 C85.76 72 43.52 72 0 72 C0 67.38 0 62.76 0 58 C11.48869442 58.37863867 22.84055884 58.77829517 34.21875 60.47265625 C38.5139644 61.07167892 42.80670282 61.48543339 47.125 61.875 C56.58490287 62.74172847 66.03124861 63.72138968 75.47625732 64.73590088 C77.09387456 64.90947632 78.7115887 65.08215149 80.32940674 65.25384521 C90.25348057 66.3083248 100.13058473 67.50713059 110 69 C109.67 67.02 109.34 65.04 109 63 C110.65 63 112.3 63 114 63 C113.37571782 60.33316351 112.75059174 57.66652933 112.125 55 C111.86396484 53.88431641 111.86396484 53.88431641 111.59765625 52.74609375 C110.72473869 49.02811156 109.82688174 45.32160005 108.8671875 41.625 C108 38 108 38 108 35 C106.35 35.66 104.7 36.32 103 37 C101.99446119 32.89716988 100.9965189 28.79252943 100 24.6875 C99.71382813 23.52025391 99.42765625 22.35300781 99.1328125 21.15039062 C98.72675781 19.47299805 98.72675781 19.47299805 98.3125 17.76171875 C98.06113281 16.73006592 97.80976562 15.69841309 97.55078125 14.63549805 C97 12 97 12 97 9 C95.5459375 9.0309375 95.5459375 9.0309375 94.0625 9.0625 C91 9 91 9 90 8 C87.34858234 7.83859267 84.72074341 7.74020807 82.06640625 7.68359375 C81.24966431 7.66208755 80.43292236 7.64058136 79.59143066 7.61842346 C75.08337069 7.50388077 70.5750131 7.41819859 66.06616211 7.34179688 C64.23160586 7.31002307 62.39705182 7.27812223 60.5625 7.24609375 C59.19847801 7.22341934 59.19847801 7.22341934 57.80690002 7.20028687 C52.47333539 7.09710336 47.19250866 6.83406478 41.875 6.41015625 C31.64983686 5.24033324 31.64983686 5.24033324 22.18994141 8.21875 C18.99663845 11.58344195 17.36559607 15.49522804 15.81689453 19.81396484 C14.71791825 22.75485952 13.30548296 25.48723471 11.8659668 28.2734375 C10.83474553 30.26944214 9.84419659 32.28155895 8.859375 34.30078125 C6.52391881 39.01660625 4.00546268 43.67379767 1 48 C0.67 48 0.34 48 0 48 C0 32.16 0 16.32 0 0 Z " fill="#BFCAC8" transform="translate(0,0)"/>
<path d="M0 0 C2.97 0 5.94 0 9 0 C8.690625 1.6396875 8.690625 1.6396875 8.375 3.3125 C7.59653475 7.0838401 7.59653475 7.0838401 10 10 C12.05925139 10.72382467 12.05925139 10.72382467 14 11 C13.4740625 10.195625 13.4740625 10.195625 12.9375 9.375 C11.71253066 6.27174433 12.36875295 4.22244997 13 1 C16.81248426 0.97112764 20.6249407 0.95324508 24.4375 0.9375 C25.52611328 0.92912109 26.61472656 0.92074219 27.73632812 0.91210938 C28.77080078 0.90888672 29.80527344 0.90566406 30.87109375 0.90234375 C31.82943115 0.89710693 32.78776855 0.89187012 33.77514648 0.88647461 C36 1 36 1 37 2 C37.07179964 3.51928038 37.08392007 5.04167482 37.0625 6.5625 C37.05347656 7.38878906 37.04445312 8.21507812 37.03515625 9.06640625 C37.02355469 9.70449219 37.01195312 10.34257812 37 11 C37.86625 10.79375 38.7325 10.5875 39.625 10.375 C43.4068856 9.95479049 45.50313503 10.60125401 49 12 C49.99 12.33 50.98 12.66 52 13 C50.125 18.875 50.125 18.875 49 20 C46.47403741 20.23653523 43.96892793 20.42173692 41.4375 20.5625 C40.37112305 20.62727539 40.37112305 20.62727539 39.28320312 20.69335938 C37.52238088 20.79971777 35.7612168 20.90038846 34 21 C34.495 23.475 34.495 23.475 35 26 C34.01 26.66 33.02 27.32 32 28 C35.06533164 29.53266582 38.26754272 29.10276471 41.625 29.0625 C42.33140625 29.05798828 43.0378125 29.05347656 43.765625 29.04882812 C45.51045275 29.03703875 47.255237 29.01910324 49 29 C49.14308594 28.23300781 49.28617187 27.46601562 49.43359375 26.67578125 C50.01124472 23.94687839 50.90330011 21.55896641 52 19 C52.495 20.98 52.495 20.98 53 23 C53.99 22.505 53.99 22.505 55 22 C55.16489368 11.95178601 55.16489368 11.95178601 54 2 C54.66 2 55.32 2 56 2 C58.31290989 12.34614155 58.1982842 22.46890579 58 33 C55.64575325 33.02726927 53.29183038 33.04696719 50.9375 33.0625 C48.97103516 33.07990234 48.97103516 33.07990234 46.96484375 33.09765625 C43.1836481 33.00452335 39.72079293 32.61448726 36 32 C36 32.66 36 33.32 36 34 C33.69 34 31.38 34 29 34 C28.7215625 32.329375 28.7215625 32.329375 28.4375 30.625 C27.963125 29.42875 27.48875 28.2325 27 27 C23.48599332 25.45913678 23.48599332 25.45913678 20 25 C20.3403125 26.5159375 20.3403125 26.5159375 20.6875 28.0625 C21.06701625 32.8444048 20.14029854 34.80501486 18 39 C15.03 38.34 12.06 37.68 9 37 C9 31.72 9 26.44 9 21 C15.27 20.67 21.54 20.34 28 20 C28 15.38 28 10.76 28 6 C25.525 5.505 25.525 5.505 23 5 C23.495 5.99 23.495 5.99 24 7 C24 8.98 24 10.96 24 13 C18.06 13 12.12 13 6 13 C5.67 16.96 5.34 20.92 5 25 C3.68 25.33 2.36 25.66 1 26 C-0.30065567 28.93660827 -0.30065567 28.93660827 -1.125 32.4375 C-2.8206278 38.8206278 -2.8206278 38.8206278 -5 41 C-7.49609375 41.265625 -7.49609375 41.265625 -10.4375 41.25 C-11.88962891 41.25773437 -11.88962891 41.25773437 -13.37109375 41.265625 C-16 41 -16 41 -19 39 C-19.34889626 33.85378013 -18.84553115 29.07318687 -18 24 C-19.32 23.34 -20.64 22.68 -22 22 C-20.7874262 18.27566618 -19.49140021 14.62197194 -18 11 C-17.29875 11.639375 -16.5975 12.27875 -15.875 12.9375 C-12.77158767 15.16386102 -10.75379861 15.65080943 -7 16 C-7 15.01 -7 14.02 -7 13 C-8.32 13 -9.64 13 -11 13 C-9.80100302 9.9168649 -8.52299523 6.93720508 -7 4 C-5.88625 4.99 -5.88625 4.99 -4.75 6 C-2.02757055 8.39211447 -2.02757055 8.39211447 2 8 C1.43260132 3.87026372 1.43260132 3.87026372 0 0 Z " fill="#1379EC" transform="translate(32,11)"/>
<path d="M0 0 C7.3905476 -0.14715692 14.64424835 0.29223008 22 1 C22 1.99 22 2.98 22 4 C16.06 4.33 10.12 4.66 4 5 C3.731875 6.423125 3.46375 7.84625 3.1875 9.3125 C2.37140752 13.6440678 2.37140752 13.6440678 0.5 15.4375 C-1.63185275 17.65817995 -1.72780929 19.68183 -2.1875 22.6875 C-2.42533203 24.17830078 -2.42533203 24.17830078 -2.66796875 25.69921875 C-2.77753906 26.45847656 -2.88710938 27.21773437 -3 28 C0.71279469 29.23759823 4.31306346 29.35608897 8.1875 29.5625 C8.93708984 29.60568359 9.68667969 29.64886719 10.45898438 29.69335938 C12.30578375 29.79922685 14.15286834 29.9000976 16 30 C17.19444862 24.42909166 18.22673758 19.04177746 15 14 C16.65 14 18.3 14 20 14 C21.85131483 17.92857754 22.22004943 20.98775112 22.125 25.3125 C22.10695312 26.38113281 22.08890625 27.44976562 22.0703125 28.55078125 C22.04710937 29.35902344 22.02390625 30.16726562 22 31 C23.051875 30.938125 24.10375 30.87625 25.1875 30.8125 C29 31 29 31 31.35546875 32.4375 C41.06337213 38.17333656 56.08679187 36.2094219 67 36 C66.7834375 35.0821875 66.566875 34.164375 66.34375 33.21875 C63.25795053 19.61837456 63.25795053 19.61837456 64 14 C65.875 12 65.875 12 68 11 C68.66 11 69.32 11 70 11 C71.00771516 14.91472324 72.0048281 18.832071 73 22.75 C73.28617187 23.86117187 73.57234375 24.97234375 73.8671875 26.1171875 C74.27324219 27.72207031 74.27324219 27.72207031 74.6875 29.359375 C74.93886719 30.34389648 75.19023438 31.32841797 75.44921875 32.34277344 C76 35 76 35 76 39 C74.35 39 72.7 39 71 39 C71.495 41.97 71.495 41.97 72 45 C61.58628431 44.34384705 51.2434673 43.33499295 40.875 42.1875 C39.26027883 42.01100234 37.64553217 41.83473766 36.03076172 41.65869141 C27.81559265 40.76095816 19.60255008 39.84486884 11.390625 38.91796875 C8.30213632 38.56984036 5.21359417 38.22219125 2.125 37.875 C1.37728333 37.7908786 0.62956665 37.7067572 -0.14080811 37.62008667 C-12.74425292 36.20647979 -25.35609662 34.99682226 -38 34 C-38.61725433 26.57961233 -37.67328534 22.01587032 -33.5 15.875 C-33.07074219 15.2046875 -32.64148437 14.534375 -32.19921875 13.84375 C-31.15287005 12.21609647 -30.07924986 10.60602658 -29 9 C-27.35 9.33 -25.7 9.66 -24 10 C-22.91100915 13.26697255 -23.04044536 15.16722254 -23.375 18.5625 C-23.46523438 19.53316406 -23.55546875 20.50382812 -23.6484375 21.50390625 C-24 24 -24 24 -25 26 C-21.84493858 26.93619813 -19.03413498 27.1057123 -15.75 27.0625 C-14.85796875 27.05347656 -13.9659375 27.04445313 -13.046875 27.03515625 C-12.37140625 27.02355469 -11.6959375 27.01195313 -11 27 C-9.3536198 23.23684525 -7.82630894 19.51269923 -6.5 15.625 C-6.005 14.42875 -5.51 13.2325 -5 12 C-4.01 11.67 -3.02 11.34 -2 11 C-1.90912109 10.06027344 -1.90912109 10.06027344 -1.81640625 9.1015625 C-1.73261719 8.28429688 -1.64882813 7.46703125 -1.5625 6.625 C-1.48128906 5.81289063 -1.40007813 5.00078125 -1.31640625 4.1640625 C-1 2 -1 2 0 0 Z " fill="#08378B" transform="translate(38,24)"/>
<path d="M0 0 C4.96958786 0.32360243 9.9406065 0.42865338 14.91894531 0.53027344 C16.28318634 0.55832565 16.28318634 0.55832565 17.67498779 0.58694458 C19.51378753 0.62434038 21.35259373 0.66141956 23.19140625 0.69818115 C27.62193609 0.79264643 32.05164691 0.91448014 36.48144531 1.03808594 C37.27394684 1.06003021 38.06644836 1.08197449 38.88296509 1.10458374 C40.6944489 1.15493168 42.50591779 1.2058164 44.31738281 1.25683594 C46.27982725 7.90079944 47.64059836 14.57774161 48.94238281 21.38183594 C49.17183594 22.5484375 49.40128906 23.71503906 49.63769531 24.91699219 C49.85425781 26.04234375 50.07082031 27.16769531 50.29394531 28.32714844 C50.58906006 29.8549292 50.58906006 29.8549292 50.89013672 31.41357422 C51.29290965 34.09397056 51.47341633 36.5524558 51.31738281 39.25683594 C49.78811713 40.78610162 48.40216103 40.38645944 46.27441406 40.38964844 C45.03401367 40.39158203 45.03401367 40.39158203 43.76855469 40.39355469 C42.89779297 40.3896875 42.02703125 40.38582031 41.12988281 40.38183594 C39.85274414 40.38763672 39.85274414 40.38763672 38.54980469 40.39355469 C34.02554677 40.38655661 29.76924403 40.1748957 25.31738281 39.25683594 C25.31738281 38.92683594 25.31738281 38.59683594 25.31738281 38.25683594 C31.58738281 38.25683594 37.85738281 38.25683594 44.31738281 38.25683594 C43.5427074 22.74146446 43.5427074 22.74146446 42.31738281 7.25683594 C41.98738281 7.58683594 41.65738281 7.91683594 41.31738281 8.25683594 C41.64686475 10.25747403 41.98104064 12.25733974 42.31738281 14.25683594 C42.38261154 16.54766883 42.40326692 18.84019388 42.37988281 21.13183594 C42.37085937 22.28425781 42.36183594 23.43667969 42.35253906 24.62402344 C42.3409375 25.49285156 42.32933594 26.36167969 42.31738281 27.25683594 C41.53363281 27.48371094 40.74988281 27.71058594 39.94238281 27.94433594 C37.09863281 29.03808594 37.09863281 29.03808594 36.00488281 31.88183594 C35.77800781 32.66558594 35.55113281 33.44933594 35.31738281 34.25683594 C32.69290801 34.50493549 30.06971136 34.73100584 27.44238281 34.94433594 C26.69601563 35.01716797 25.94964844 35.09 25.18066406 35.16503906 C23.01269531 35.33105469 23.01269531 35.33105469 19.31738281 35.25683594 C18.65738281 34.26683594 17.99738281 33.27683594 17.31738281 32.25683594 C18.30738281 31.59683594 19.29738281 30.93683594 20.31738281 30.25683594 C20.31738281 28.93683594 20.31738281 27.61683594 20.31738281 26.25683594 C23.15007947 24.84048761 25.79204719 24.91053544 28.94238281 24.69433594 C30.72515625 24.56865234 30.72515625 24.56865234 32.54394531 24.44042969 C33.45917969 24.37984375 34.37441406 24.31925781 35.31738281 24.25683594 C35.97738281 22.27683594 36.63738281 20.29683594 37.31738281 18.25683594 C32.68287248 17.2103336 28.03686774 16.74991645 23.31738281 16.25683594 C22.82238281 11.80183594 22.82238281 11.80183594 22.31738281 7.25683594 C14.72738281 6.92683594 7.13738281 6.59683594 -0.68261719 6.25683594 C-0.73969274 11.49056362 -0.73969274 11.49056362 0.31738281 16.25683594 C-4.23936237 15.77717855 -4.23936237 15.77717855 -6.12011719 13.56933594 C-6.90696513 10.33451661 -5.91898612 8.27907111 -4.68261719 5.25683594 C-7.32261719 5.58683594 -9.96261719 5.91683594 -12.68261719 6.25683594 C-11.69261719 7.74183594 -11.69261719 7.74183594 -10.68261719 9.25683594 C-11.05761719 11.94433594 -11.05761719 11.94433594 -11.68261719 14.25683594 C-15.50358958 13.72614533 -17.74433122 12.75982028 -20.68261719 10.25683594 C-22.00261719 12.89683594 -23.32261719 15.53683594 -24.68261719 18.25683594 C-23.36261719 18.25683594 -22.04261719 18.25683594 -20.68261719 18.25683594 C-20.68261719 19.24683594 -20.68261719 20.23683594 -20.68261719 21.25683594 C-26.0980018 21.62606671 -26.0980018 21.62606671 -29.05761719 19.75683594 C-29.59386719 19.26183594 -30.13011719 18.76683594 -30.68261719 18.25683594 C-29.63547081 12.00925474 -28.02831819 6.07224844 -23.50732422 1.45654297 C-17.19389548 -2.6944055 -7.11078394 -0.49282661 0 0 Z " fill="#0A2459" transform="translate(45.6826171875,5.7431640625)"/>
<path d="M0 0 C11.48869442 0.37863867 22.84055884 0.77829517 34.21875 2.47265625 C38.5139644 3.07167892 42.80670282 3.48543339 47.125 3.875 C56.58490287 4.74172847 66.03124861 5.72138968 75.47625732 6.73590088 C77.09387456 6.90947632 78.7115887 7.08215149 80.32940674 7.25384521 C90.25348057 8.3083248 100.13058473 9.50713059 110 11 C109.505 8.03 109.505 8.03 109 5 C110.65 5 112.3 5 114 5 C114.33 4.34 114.66 3.68 115 3 C115.33333333 4.33333333 115.66666667 5.66666667 116 7 C116.309375 8.0209375 116.309375 8.0209375 116.625 9.0625 C117 11 117 11 116 14 C77.72 14 39.44 14 0 14 C0 9.38 0 4.76 0 0 Z " fill="#A7B5B8" transform="translate(0,58)"/>
<path d="M0 0 C24.75 0 49.5 0 75 0 C74.67 1.32 74.34 2.64 74 4 C74.99 4.66 75.98 5.32 77 6 C76.35599747 5.9792189 75.71199493 5.95843781 75.04847717 5.93702698 C68.3152967 5.73469007 61.58642381 5.63880073 54.8503418 5.60327148 C52.34079079 5.57625924 49.83137431 5.52255292 47.32299805 5.44116211 C34.12013316 4.41657221 34.12013316 4.41657221 22.01638794 8.40823364 C18.8810618 11.87862722 17.13454846 15.80151579 15.6288147 20.19107056 C14.83803089 22.46594124 13.74449823 24.50805581 12.58203125 26.61328125 C11.98669708 27.84371276 11.39657879 29.07668592 10.8125 30.3125 C7.85891053 36.37860984 4.85873756 42.44555424 1 48 C0.67 48 0.34 48 0 48 C0 32.16 0 16.32 0 0 Z " fill="#D1D9D9" transform="translate(0,0)"/>
<path d="M0 0 C1.98 0 3.96 0 6 0 C12.15225734 22.11180312 12.15225734 22.11180312 11.9375 33 C11.86353026 37.04367902 12.66149928 40.77376073 13.5625 44.703125 C14 47 14 47 14 51 C2.92584279 52.42892351 -8.05325397 52.66195255 -19 50 C-20.91015625 48.42578125 -20.91015625 48.42578125 -22 47 C-12.24416608 47.57121986 -2.66855081 48.60523707 7 50 C7 47.69 7 45.38 7 43 C6.01 43.66 5.02 44.32 4 45 C1.95703125 45.1953125 1.95703125 45.1953125 -0.1875 45.125 C-1.445625 45.08375 -2.70375 45.0425 -4 45 C-4 44.34 -4 43.68 -4 43 C-4.89203125 43.02320313 -5.7840625 43.04640625 -6.703125 43.0703125 C-7.87359375 43.08835938 -9.0440625 43.10640625 -10.25 43.125 C-11.41015625 43.14820313 -12.5703125 43.17140625 -13.765625 43.1953125 C-16.85166412 43.00895748 -18.54173503 42.84369873 -21 41 C-21.75 37.375 -21.75 37.375 -22 34 C-19.125 33.875 -19.125 33.875 -16 34 C-15.34 34.66 -14.68 35.32 -14 36 C-11.96532566 36.27686065 -11.96532566 36.27686065 -9.6484375 36.1953125 C-8.37226562 36.18564453 -8.37226562 36.18564453 -7.0703125 36.17578125 C-6.18085937 36.15902344 -5.29140625 36.14226563 -4.375 36.125 C-3.4778125 36.11597656 -2.580625 36.10695312 -1.65625 36.09765625 C0.56276586 36.0740497 2.78125077 36.0411231 5 36 C4.54146967 27.82064331 3.09079453 19.98911431 1.37207031 11.99511719 C0.5146409 7.93766679 -0.26634976 4.17567695 0 0 Z " fill="#0C55C4" transform="translate(91,9)"/>
<path d="M0 0 C0.680625 0.639375 1.36125 1.27875 2.0625 1.9375 C5.46408839 4.3258493 7.90433701 4.67877153 12 5 C12 4.34 12 3.68 12 3 C13.65 3.66 15.3 4.32 17 5 C17 6.65 17 8.3 17 10 C18.98 9.01 20.96 8.02 23 7 C23 9.31 23 11.62 23 14 C22.38382813 14.03222656 21.76765625 14.06445312 21.1328125 14.09765625 C18.67098363 14.8456358 18.67098363 14.8456358 17.8046875 17.87109375 C17.49789063 19.04800781 17.19109375 20.22492187 16.875 21.4375 C15.1793722 27.8206278 15.1793722 27.8206278 13 30 C10.50390625 30.265625 10.50390625 30.265625 7.5625 30.25 C6.11037109 30.25773437 6.11037109 30.25773437 4.62890625 30.265625 C2 30 2 30 -1 28 C-1.34889626 22.85378013 -0.84553115 18.07318687 0 13 C-1.32 12.34 -2.64 11.68 -4 11 C-2.7874262 7.27566618 -1.49140021 3.62197194 0 0 Z " fill="#1069DF" transform="translate(14,22)"/>
<path d="M0 0 C1.00771516 3.91472324 2.0048281 7.832071 3 11.75 C3.28617188 12.86117187 3.57234375 13.97234375 3.8671875 15.1171875 C4.13789062 16.18710937 4.40859375 17.25703125 4.6875 18.359375 C5.06455078 19.83615723 5.06455078 19.83615723 5.44921875 21.34277344 C6 24 6 24 6 28 C4.35 28 2.7 28 1 28 C1.495 30.97 1.495 30.97 2 34 C-8.2135619 33.36685913 -18.36467493 32.38764306 -28.53466797 31.27050781 C-31.02406781 30.99735917 -33.51394176 30.72888516 -36.00390625 30.4609375 C-37.60680046 30.28673073 -39.20966615 30.11226124 -40.8125 29.9375 C-41.54694336 29.85830322 -42.28138672 29.77910645 -43.03808594 29.69750977 C-47.05141088 29.25422063 -51.02428891 28.70526743 -55 28 C-55 27.67 -55 27.34 -55 27 C-53.25928223 27.04543945 -53.25928223 27.04543945 -51.48339844 27.09179688 C-47.17465539 27.20413499 -42.86589493 27.31579288 -38.55712891 27.42724609 C-36.69286628 27.47556322 -34.82860841 27.52406439 -32.96435547 27.57275391 C-30.28354098 27.64273788 -27.60271003 27.71205825 -24.921875 27.78125 C-24.08944275 27.80312378 -23.2570105 27.82499756 -22.39935303 27.84753418 C-21.61884583 27.86755493 -20.83833862 27.88757568 -20.03417969 27.90820312 C-19.00825714 27.93485046 -19.00825714 27.93485046 -17.96160889 27.96203613 C-15.97473769 28.00048891 -13.98724325 28 -12 28 C-12 28.66 -12 29.32 -12 30 C-11.01 29.34 -10.02 28.68 -9 28 C-11.31 27.67 -13.62 27.34 -16 27 C-12.93753253 25.21590198 -10.77920727 24.77119979 -7.25 24.875 C-6.45078125 24.89304687 -5.6515625 24.91109375 -4.828125 24.9296875 C-4.22484375 24.95289062 -3.6215625 24.97609375 -3 25 C-3.2165625 24.0821875 -3.433125 23.164375 -3.65625 22.21875 C-6.74204947 8.61837456 -6.74204947 8.61837456 -6 3 C-3.95950963 0.82347693 -2.99435075 0 0 0 Z " fill="#1F4889" transform="translate(108,35)"/>
<path d="M0 0 C5.61 0 11.22 0 17 0 C18.56613275 5.48146464 19.2366197 8.52394472 19.125 13.9375 C19.10695313 15.08089844 19.08890625 16.22429688 19.0703125 17.40234375 C19.04710938 18.25957031 19.02390625 19.11679687 19 20 C18.21625 20.226875 17.4325 20.45375 16.625 20.6875 C13.78125 21.78125 13.78125 21.78125 12.6875 24.625 C12.460625 25.40875 12.23375 26.1925 12 27 C9.3755252 27.24809955 6.75232855 27.4741699 4.125 27.6875 C3.37863281 27.76033203 2.63226563 27.83316406 1.86328125 27.90820312 C-0.3046875 28.07421875 -0.3046875 28.07421875 -4 28 C-4.66 27.01 -5.32 26.02 -6 25 C-5.01 24.34 -4.02 23.68 -3 23 C-3 21.68 -3 20.36 -3 19 C-0.16730334 17.58365167 2.47466438 17.6536995 5.625 17.4375 C7.40777344 17.31181641 7.40777344 17.31181641 9.2265625 17.18359375 C10.14179687 17.12300781 11.05703125 17.06242187 12 17 C12.66 15.02 13.32 13.04 14 11 C9.36548967 9.95349767 4.71948493 9.49308052 0 9 C0 6.03 0 3.06 0 0 Z " fill="#2375DC" transform="translate(69,13)"/>
<path d="M0 0 C1.65 0.33 3.3 0.66 5 1 C6.08899085 4.26697255 5.95955464 6.16722254 5.625 9.5625 C5.53476563 10.53316406 5.44453125 11.50382812 5.3515625 12.50390625 C5 15 5 15 4 17 C5.32 17.33 6.64 17.66 8 18 C6.33657163 19.66342837 4.2174291 19.36048097 1.9375 19.5625 C0.55884766 19.68818359 0.55884766 19.68818359 -0.84765625 19.81640625 C-1.55792969 19.87699219 -2.26820313 19.93757813 -3 20 C-3 20.66 -3 21.32 -3 22 C-2.24203125 22.03738281 -1.4840625 22.07476562 -0.703125 22.11328125 C8.415707 22.63936771 17.48065802 23.52728014 26.5625 24.5 C27.78743164 24.63059814 29.01236328 24.76119629 30.27441406 24.89575195 C35.54754348 25.46966092 40.77270088 26.08980051 46 27 C46 27.33 46 27.66 46 28 C36.74042071 30.0020712 27.75028184 28.92296835 18.48046875 27.578125 C9.36923501 26.33018523 0.1634664 25.74282238 -9 25 C-9.61725433 17.57961233 -8.67328534 13.01587032 -4.5 6.875 C-4.07074219 6.2046875 -3.64148438 5.534375 -3.19921875 4.84375 C-2.15287005 3.21609647 -1.07924986 1.60602658 0 0 Z " fill="#184C99" transform="translate(9,33)"/>
<path d="M0 0 C1.32 0 2.64 0 4 0 C4 0.66 4 1.32 4 2 C5.258125 1.62875 6.51625 1.2575 7.8125 0.875 C9.95703125 0.2421875 9.95703125 0.2421875 12 0 C15.05786909 2.03857939 15.74396745 2.71155954 17 6 C17.22705078 8.19824219 17.22705078 8.19824219 17.1953125 10.546875 C17.18886719 11.39121094 17.18242187 12.23554687 17.17578125 13.10546875 C17.15902344 13.97816406 17.14226562 14.85085937 17.125 15.75 C17.11597656 16.63816406 17.10695312 17.52632812 17.09765625 18.44140625 C17.0741475 20.62772011 17.03827811 22.81389484 17 25 C13.04 25 9.08 25 5 25 C4.67 24.01 4.34 23.02 4 22 C4.66 22 5.32 22 6 22 C5.67 20.68 5.34 19.36 5 18 C3.68 17.67 2.36 17.34 1 17 C1.99 17 2.98 17 4 17 C3.79503906 16.35933594 3.59007813 15.71867187 3.37890625 15.05859375 C1.81172636 10.02712149 0.56957826 5.24011997 0 0 Z " fill="#BAC3C3" transform="translate(111,47)"/>
<path d="M0 0 C16.17 0 32.34 0 49 0 C48.67 1.32 48.34 2.64 48 4 C48.99 4.66 49.98 5.32 51 6 C45.05924783 6.02488393 39.1185266 6.0429465 33.17773438 6.05493164 C31.16047639 6.05993284 29.14322197 6.06673594 27.12597656 6.07543945 C24.21157952 6.08769087 21.29723077 6.09327059 18.3828125 6.09765625 C17.49385284 6.10281754 16.60489319 6.10797882 15.68899536 6.11329651 C9.73663725 6.1138192 3.91066481 5.69831537 -2 5 C-2.33 4.01 -2.66 3.02 -3 2 C-2.01 2 -1.02 2 0 2 C0 1.34 0 0.68 0 0 Z " fill="#E8EDF2" transform="translate(26,0)"/>
<path d="M0 0 C7.26 0 14.52 0 22 0 C21.34 2.31 20.68 4.62 20 7 C20.99 6.67 21.98 6.34 23 6 C24.5 7.3125 24.5 7.3125 26 9 C26 9.99 26 10.98 26 12 C26.66 12.99 27.32 13.98 28 15 C27.34 15 26.68 15 26 15 C26.18464366 19.34184202 26.18464366 19.34184202 28 23 C28.14115161 25.67058851 28.04247107 28.32432238 28 31 C25.6567955 27.48519325 24.84632099 24.04357331 23.875 20 C23.69324219 19.27554687 23.51148438 18.55109375 23.32421875 17.8046875 C22.58699203 14.80035004 22 12.10482716 22 9 C20.5459375 9.0309375 20.5459375 9.0309375 19.0625 9.0625 C16 9 16 9 15 8 C12.04470496 7.83970312 9.11017543 7.74042672 6.15234375 7.68359375 C4.82270348 7.6524221 4.82270348 7.6524221 3.46620178 7.62062073 C0.623383 7.555026 -2.21953117 7.49619448 -5.0625 7.4375 C-6.98503606 7.3943242 -8.90756234 7.35071022 -10.83007812 7.30664062 C-15.55328668 7.19933457 -20.27659153 7.09809549 -25 7 C-25 6.67 -25 6.34 -25 6 C-17.41 5.67 -9.82 5.34 -2 5 C-1.34 3.35 -0.68 1.7 0 0 Z " fill="#E2E8EA" transform="translate(75,0)"/>
<path d="M0 0 C0.66 0 1.32 0 2 0 C2.05429959 1.74965358 2.09292823 3.49979787 2.125 5.25 C2.14820312 6.22453125 2.17140625 7.1990625 2.1953125 8.203125 C1.99660912 11.04855741 1.57242336 12.64136496 0 15 C-2.125 15.75 -2.125 15.75 -4 16 C-4 16.66 -4 17.32 -4 18 C-5.65 18 -7.3 18 -9 18 C-8.6596875 19.5159375 -8.6596875 19.5159375 -8.3125 21.0625 C-7.93298375 25.8444048 -8.85970146 27.80501486 -11 32 C-15.455 31.01 -15.455 31.01 -20 30 C-20 24.72 -20 19.44 -20 14 C-13.73 13.67 -7.46 13.34 -1 13 C-0.67 8.71 -0.34 4.42 0 0 Z " fill="#116BE4" transform="translate(61,18)"/>
<path d="M0 0 C1.98 0 3.96 0 6 0 C13.17871381 25.80098615 13.17871381 25.80098615 11 35 C10.67 35 10.34 35 10 35 C10 33.35 10 31.7 10 30 C9.34 30 8.68 30 8 30 C8 32.31 8 34.62 8 37 C5.525 37.495 5.525 37.495 3 38 C3.66 37.34 4.32 36.68 5 36 C5.48962948 28.06800245 3.02922673 19.70808721 1.37255859 11.99462891 C0.51423176 7.93744146 -0.2663431 4.17557241 0 0 Z " fill="#3074C9" transform="translate(91,9)"/>
<path d="M0 0 C6 2 6 2 7.375 4.125 C7.684375 5.053125 7.684375 5.053125 8 6 C8.66 6 9.32 6 10 6 C8.66666667 8.66666667 7.33333333 11.33333333 6 14 C7.32 14.33 8.64 14.66 10 15 C10 16.32 10 17.64 10 19 C7.33333333 19 4.66666667 19 2 19 C1.67 19.66 1.34 20.32 1 21 C1.66 21 2.32 21 3 21 C3 21.66 3 22.32 3 23 C3.639375 23.12375 4.27875 23.2475 4.9375 23.375 C5.9584375 23.684375 5.9584375 23.684375 7 24 C7.33 24.66 7.66 25.32 8 26 C6.6015625 28.8203125 6.6015625 28.8203125 4.625 32.125 C3.97789063 33.22070312 3.33078125 34.31640625 2.6640625 35.4453125 C1.84035156 36.70988281 1.84035156 36.70988281 1 38 C0.67 38 0.34 38 0 38 C0 25.46 0 12.92 0 0 Z " fill="#C8D1D0" transform="translate(0,10)"/>
<path d="M0 0 C7.3905476 -0.14715692 14.64424835 0.29223008 22 1 C22 1.99 22 2.98 22 4 C16.06 4.33 10.12 4.66 4 5 C3.731875 6.423125 3.46375 7.84625 3.1875 9.3125 C2.37133183 13.64446953 2.37133183 13.64446953 0.53125 15.40625 C-1.69566827 17.7240629 -1.98699081 20.08524503 -2.6875 23.1875 C-2.93886719 24.27417969 -3.19023438 25.36085938 -3.44921875 26.48046875 C-3.63097656 27.31191406 -3.81273437 28.14335938 -4 29 C-5.98 29 -7.96 29 -10 29 C-8.83753528 23.09194399 -7.4607331 17.51204215 -5 12 C-4.01 11.67 -3.02 11.34 -2 11 C-1.93941406 10.37351562 -1.87882812 9.74703125 -1.81640625 9.1015625 C-1.73261719 8.28429688 -1.64882813 7.46703125 -1.5625 6.625 C-1.48128906 5.81289063 -1.40007813 5.00078125 -1.31640625 4.1640625 C-1 2 -1 2 0 0 Z " fill="#030F42" transform="translate(38,24)"/>
<path d="M0 0 C0.33 0.66 0.66 1.32 1 2 C1.66 2 2.32 2 3 2 C3.33 1.34 3.66 0.68 4 0 C4.84097414 4.22768438 5.67144025 8.45736656 6.5 12.6875 C6.73847656 13.88568359 6.97695312 15.08386719 7.22265625 16.31835938 C7.44824219 17.47529297 7.67382812 18.63222656 7.90625 19.82421875 C8.11572266 20.88729248 8.32519531 21.95036621 8.54101562 23.0456543 C8.96446258 25.7712562 9.16539512 28.24907183 9 31 C7.47073432 32.52926568 6.08477821 32.1296235 3.95703125 32.1328125 C2.71663086 32.13474609 2.71663086 32.13474609 1.45117188 32.13671875 C0.58041016 32.13285156 -0.29035156 32.12898438 -1.1875 32.125 C-2.46463867 32.13080078 -2.46463867 32.13080078 -3.76757812 32.13671875 C-8.29183604 32.12972067 -12.54813878 31.91805976 -17 31 C-17 30.67 -17 30.34 -17 30 C-10.73 30 -4.46 30 2 30 C1.27832367 14.97984312 1.27832367 14.97984312 0 0 Z " fill="#031750" transform="translate(88,14)"/>
<path d="M0 0 C1.66611905 -0.042721 3.33382885 -0.04063832 5 0 C6 1 6 1 6.1328125 4.125 C6.13023438 5.40375 6.12765625 6.6825 6.125 8 C6.12886719 9.918125 6.12886719 9.918125 6.1328125 11.875 C6 15 6 15 5 16 C3.58429877 16.08651611 2.164405 16.10704904 0.74609375 16.09765625 C-0.10791016 16.09443359 -0.96191406 16.09121094 -1.84179688 16.08789062 C-3.18854492 16.07532227 -3.18854492 16.07532227 -4.5625 16.0625 C-5.46419922 16.05798828 -6.36589844 16.05347656 -7.29492188 16.04882812 C-9.53001314 16.03700225 -11.76497437 16.0205222 -14 16 C-13.98404785 16.61415771 -13.9680957 17.22831543 -13.95166016 17.86108398 C-13.93925293 18.66876221 -13.9268457 19.47644043 -13.9140625 20.30859375 C-13.89811035 21.10837646 -13.8821582 21.90815918 -13.86572266 22.73217773 C-14.04786877 25.80845999 -15.0358495 27.65812825 -17 30 C-17.66 30 -18.32 30 -19 30 C-19.33 30.66 -19.66 31.32 -20 32 C-19.37417292 25.36623291 -19.37417292 25.36623291 -17.52734375 23.55859375 C-15.58111192 21.57254132 -15.36071028 20.08614644 -14.875 17.375 C-14.08333333 13.08333333 -14.08333333 13.08333333 -13 12 C-11.65732587 11.91368126 -10.31025678 11.89293527 -8.96484375 11.90234375 C-8.15595703 11.90556641 -7.34707031 11.90878906 -6.51367188 11.91210938 C-5.66353516 11.92048828 -4.81339844 11.92886719 -3.9375 11.9375 C-3.08349609 11.94201172 -2.22949219 11.94652344 -1.34960938 11.95117188 C0.76695663 11.96299627 2.88348685 11.98093231 5 12 C5 11.01 5 10.02 5 9 C1.04 9 -2.92 9 -7 9 C-7 8.67 -7 8.34 -7 8 C-4.36 8 -1.72 8 1 8 C0.67 5.36 0.34 2.72 0 0 Z " fill="#0E44A2" transform="translate(55,16)"/>
<path d="M0 0 C1.65 0 3.3 0 5 0 C6.85131483 3.92857754 7.22004943 6.98775112 7.125 11.3125 C7.10695312 12.38113281 7.08890625 13.44976562 7.0703125 14.55078125 C7.04710937 15.35902344 7.02390625 16.16726562 7 17 C8.60875 16.9071875 8.60875 16.9071875 10.25 16.8125 C14.24316254 17.01215813 15.08119822 17.53968257 18 20 C7.16421332 19.58923162 -3.59292876 18.72073736 -14.375 17.5625 C-15.55747314 17.44028076 -16.73994629 17.31806152 -17.95825195 17.19213867 C-19.07288818 17.06814697 -20.18752441 16.94415527 -21.3359375 16.81640625 C-22.33157715 16.70756104 -23.3272168 16.59871582 -24.35302734 16.48657227 C-26.91804435 16.01506527 -28.75310485 15.29541404 -31 14 C-29.02 13.67 -27.04 13.34 -25 13 C-25 13.66 -25 14.32 -25 15 C-23.02 15 -21.04 15 -19 15 C-19 13.35 -19 11.7 -19 10 C-18.896875 10.639375 -18.79375 11.27875 -18.6875 11.9375 C-18.460625 12.618125 -18.23375 13.29875 -18 14 C-14.28720531 15.23759823 -10.68693654 15.35608897 -6.8125 15.5625 C-6.06291016 15.60568359 -5.31332031 15.64886719 -4.54101562 15.69335938 C-2.69421625 15.79922685 -0.84713166 15.9000976 1 16 C2.19444862 10.42909166 3.22673758 5.04177746 0 0 Z " fill="#1D4A9F" transform="translate(53,38)"/>
<path d="M0 0 C1.00771516 3.91472324 2.0048281 7.832071 3 11.75 C3.28617188 12.86117187 3.57234375 13.97234375 3.8671875 15.1171875 C4.13789062 16.18710937 4.40859375 17.25703125 4.6875 18.359375 C4.93886719 19.34389648 5.19023438 20.32841797 5.44921875 21.34277344 C6 24 6 24 6 28 C3.69 27.67 1.38 27.34 -1 27 C-1.67684298 23.96050698 -2.33961872 20.91810835 -3 17.875 C-3.19078125 17.0190625 -3.3815625 16.163125 -3.578125 15.28125 C-5.52729419 6.23153589 -5.52729419 6.23153589 -5 2 C-2 0 -2 0 0 0 Z " fill="#0B1235" transform="translate(108,35)"/>
<path d="M0 0 C2.53499065 0.02884769 4.78395207 0.25344144 7.24609375 0.84375 C7.24609375 1.83375 7.24609375 2.82375 7.24609375 3.84375 C9.55609375 3.84375 11.86609375 3.84375 14.24609375 3.84375 C14.24609375 4.17375 14.24609375 4.50375 14.24609375 4.84375 C13.38886719 4.76511719 12.53164063 4.68648437 11.6484375 4.60546875 C7.81543046 4.52336375 4.90753328 4.66016838 1.24609375 5.84375 C-2.03889319 9.85991145 -3.89618471 13.9866526 -5.75390625 18.84375 C-4.43390625 18.84375 -3.11390625 18.84375 -1.75390625 18.84375 C-1.75390625 19.83375 -1.75390625 20.82375 -1.75390625 21.84375 C-7.16929087 22.21298077 -7.16929087 22.21298077 -10.12890625 20.34375 C-10.66515625 19.84875 -11.20140625 19.35375 -11.75390625 18.84375 C-10.84457466 12.22929693 -6.89356188 2.11207002 0 0 Z " fill="#091843" transform="translate(26.75390625,5.15625)"/>
<path d="M0 0 C2.875 -0.125 2.875 -0.125 6 0 C6.66 0.66 7.32 1.32 8 2 C10.89967757 2.30675232 13.71783178 2.51173371 16.625 2.625 C17.42679688 2.66367187 18.22859375 2.70234375 19.0546875 2.7421875 C21.03607556 2.83653931 23.01800645 2.91936215 25 3 C24.67 5.31 24.34 7.62 24 10 C20.91595192 9.88979143 17.83308808 9.75924186 14.75 9.625 C13.44095703 9.57859375 13.44095703 9.57859375 12.10546875 9.53125 C10.83896484 9.47324219 10.83896484 9.47324219 9.546875 9.4140625 C8.77182617 9.3826416 7.99677734 9.3512207 7.19824219 9.31884766 C4.70882926 8.95776666 3.08199725 8.4181804 1 7 C0.25 3.375 0.25 3.375 0 0 Z " fill="#0849B1" transform="translate(69,43)"/>
<path d="M0 0 C5.28 0 10.56 0 16 0 C16 0.33 16 0.66 16 1 C13.69 1 11.38 1 9 1 C8.67 2.65 8.34 4.3 8 6 C8.99 6 9.98 6 11 6 C10.979375 6.9075 10.95875 7.815 10.9375 8.75 C10.9889755 11.42672588 11.2215017 13.46988052 12 16 C7.44325482 15.52034261 7.44325482 15.52034261 5.5625 13.3125 C4.77565205 10.07768067 5.76363107 8.02223517 7 5 C4.36 5.33 1.72 5.66 -1 6 C-0.01 7.485 -0.01 7.485 1 9 C0.625 11.6875 0.625 11.6875 0 14 C-3.67420866 13.69381595 -4.78135513 13.24228216 -7.3125 10.4375 C-7.869375 9.633125 -8.42625 8.82875 -9 8 C-7.875 6.0625 -7.875 6.0625 -6 4 C-2.8125 3.25 -2.8125 3.25 0 3 C0 2.01 0 1.02 0 0 Z " fill="#092C6C" transform="translate(34,6)"/>
<path d="M0 0 C0.33 0 0.66 0 1 0 C1.34808854 4.8732396 0.81914345 7.95922773 -2 12 C-4.95854717 12.7233384 -7.09002178 13.01782084 -10.0625 13.0625 C-10.79533203 13.10826172 -11.52816406 13.15402344 -12.28320312 13.20117188 C-14.41015625 13.28515625 -14.41015625 13.28515625 -18 13 C-18.66 12.01 -19.32 11.02 -20 10 C-19.01 9.34 -18.02 8.68 -17 8 C-17 6.68 -17 5.36 -17 4 C-13.34965773 2.17482887 -8.99640885 2.58830887 -4.96875 2.37890625 C-1.88509744 2.29302673 -1.88509744 2.29302673 0 0 Z " fill="#145DC8" transform="translate(83,28)"/>
<path d="M0 0 C7.59 0.33 15.18 0.66 23 1 C23 1.33 23 1.66 23 2 C21.4221875 2.2165625 21.4221875 2.2165625 19.8125 2.4375 C16.84539451 2.87526966 13.93205634 3.37804866 11 4 C9.768606 7.69418201 10.35567236 10.2056261 11 14 C7.37 14 3.74 14 0 14 C0 9.38 0 4.76 0 0 Z " fill="#9AAAB1" transform="translate(0,58)"/>
<path d="M0 0 C1.32 1.32 2.64 2.64 4 4 C3.67 4.66 3.34 5.32 3 6 C2.34 6 1.68 6 1 6 C1.020625 7.0725 1.04125 8.145 1.0625 9.25 C0.97560976 14.46341463 0.97560976 14.46341463 0 17 C-2.78863007 18.39431504 -4.92078868 18.25660094 -8 18 C-8.66 17.01 -9.32 16.02 -10 15 C-9.40138258 12.64828869 -8.73075648 10.3140622 -8 8 C-8 6.68 -8 5.36 -8 4 C-7.67 3.01 -7.34 2.02 -7 1 C-6.67 1.66 -6.34 2.32 -6 3 C-4.02 2.01 -2.04 1.02 0 0 Z " fill="#0F6EE6" transform="translate(28,32)"/>
<path d="M0 0 C5.94 0.66 11.88 1.32 18 2 C18 2.66 18 3.32 18 4 C19.258125 3.855625 20.51625 3.71125 21.8125 3.5625 C22.52019531 3.48128906 23.22789063 3.40007813 23.95703125 3.31640625 C26.19396393 3.02829265 26.19396393 3.02829265 29 2 C29 4.31 29 6.62 29 9 C19.21962456 8.47947582 9.67903105 7.53611741 0 6 C0 4.02 0 2.04 0 0 Z " fill="#0E60D9" transform="translate(69,50)"/>
<path d="M0 0 C3.63 0 7.26 0 11 0 C11 1.65 11 3.3 11 5 C10.34 5 9.68 5 9 5 C9 5.66 9 6.32 9 7 C7.02 7.99 7.02 7.99 5 9 C5 7.68 5 6.36 5 5 C2.36 4.34 -0.28 3.68 -3 3 C-2.67 3.66 -2.34 4.32 -2 5 C-1.960008 6.99960012 -1.95653201 9.00047242 -2 11 C-5.3 11 -8.6 11 -12 11 C-11.79375 9.88625 -11.5875 8.7725 -11.375 7.625 C-11.25125 6.42875 -11.1275 5.2325 -11 4 C-11.66 3.34 -12.32 2.68 -13 2 C-8.71 2 -4.42 2 0 2 C0 1.34 0 0.68 0 0 Z " fill="#1D87EF" transform="translate(58,13)"/>
<path d="M0 0 C0 0.66 0 1.32 0 2 C0.84304687 2.12117188 1.68609375 2.24234375 2.5546875 2.3671875 C3.65039062 2.53476563 4.74609375 2.70234375 5.875 2.875 C6.96554688 3.03742188 8.05609375 3.19984375 9.1796875 3.3671875 C12 4 12 4 14 6 C14 6.99 14 7.98 14 9 C4.83235923 9.3521 -2.72910686 9.13544657 -11 5 C-10.25 2.5625 -10.25 2.5625 -9 0 C-5.8730209 -1.50957612 -3.28059227 -0.82014807 0 0 Z " fill="#B3BEC0" transform="translate(52,63)"/>
<path d="M0 0 C0.66 0 1.32 0 2 0 C4.31290989 10.34614155 4.1982842 20.46890579 4 31 C1.62492145 31.02719556 -0.74983964 31.04693247 -3.125 31.0625 C-4.12273437 31.07506836 -4.12273437 31.07506836 -5.140625 31.08789062 C-9.20681354 31.10782292 -13.0120092 30.78890161 -17 30 C-17 29.67 -17 29.34 -17 29 C-11.72 28.67 -6.44 28.34 -1 28 C-1.33 27.34 -1.66 26.68 -2 26 C-2.99 26 -3.98 26 -5 26 C-4.01 23.03 -3.02 20.06 -2 17 C-1.67 18.32 -1.34 19.64 -1 21 C-0.34 20.67 0.32 20.34 1 20 C1.16489368 9.95178601 1.16489368 9.95178601 0 0 Z " fill="#185FC7" transform="translate(86,13)"/>
<path d="M0 0 C1.65 0.33 3.3 0.66 5 1 C5 5.24280492 4.17157221 7.40538392 2.5 11.25 C1.80390625 12.86648437 1.80390625 12.86648437 1.09375 14.515625 C0.7328125 15.33546875 0.371875 16.1553125 0 17 C-2.64 17 -5.28 17 -8 17 C-7.41734728 12.57676318 -5.73233789 9.4844136 -3.4375 5.6875 C-2.79683594 4.61886719 -2.15617188 3.55023438 -1.49609375 2.44921875 C-1.00238281 1.64097656 -0.50867188 0.83273438 0 0 Z " fill="#020E3E" transform="translate(9,33)"/>
<path d="M0 0 C0.680625 0.639375 1.36125 1.27875 2.0625 1.9375 C5.46408839 4.3258493 7.90433701 4.67877153 12 5 C12 4.34 12 3.68 12 3 C13.32 3.66 14.64 4.32 16 5 C15.67 6.32 15.34 7.64 15 9 C11.7 9 8.4 9 5 9 C5 9.66 5 10.32 5 11 C4.34 11 3.68 11 3 11 C3 11.99 3 12.98 3 14 C-1.75 12.125 -1.75 12.125 -4 11 C-2.7874262 7.27566618 -1.49140021 3.62197194 0 0 Z " fill="#1D62C5" transform="translate(14,22)"/>
<path d="M0 0 C9.24 0 18.48 0 28 0 C28.33 0.99 28.66 1.98 29 3 C26.20879909 4.39560045 23.79794308 4.21808288 20.6796875 4.31640625 C19.42285156 4.35830078 18.16601562 4.40019531 16.87109375 4.44335938 C14.89302734 4.50233398 14.89302734 4.50233398 12.875 4.5625 C11.53514249 4.60569512 10.19529844 4.64930973 8.85546875 4.69335938 C5.57042185 4.79970981 2.28529719 4.90173808 -1 5 C-0.67 3.35 -0.34 1.7 0 0 Z " fill="#071332" transform="translate(43,7)"/>
<path d="M0 0 C2.31 0.66 4.62 1.32 7 2 C5.125 7.875 5.125 7.875 4 9 C1.98035801 9.07244053 -0.04167124 9.08377188 -2.0625 9.0625 C-3.71958984 9.04896484 -3.71958984 9.04896484 -5.41015625 9.03515625 C-6.26480469 9.02355469 -7.11945313 9.01195312 -8 9 C-8.73080266 7.02253397 -9.39421747 5.01927511 -10 3 C-9.67 2.34 -9.34 1.68 -9 1 C-7.700625 1.020625 -6.40125 1.04125 -5.0625 1.0625 C-3.70834367 1.08399454 -2.35243917 1.07148199 -1 1 C-0.67 0.67 -0.34 0.34 0 0 Z " fill="#1E8AF1" transform="translate(77,22)"/>
<path d="M0 0 C1.4092283 2.6305595 2.52274325 5.04100817 3 8 C2.67 8.99 2.34 9.98 2 11 C-4.93 11 -11.86 11 -19 11 C-19 9.35 -19 7.7 -19 6 C-11.575 6.99 -11.575 6.99 -4 8 C-4.33 6.02 -4.66 4.04 -5 2 C-3.35 2 -1.7 2 0 2 C0 1.34 0 0.68 0 0 Z " fill="#9BACB2" transform="translate(114,61)"/>
<path d="M0 0 C4.29 0 8.58 0 13 0 C13 2.64 13 5.28 13 8 C8.38 8 3.76 8 -1 8 C-0.67 5.36 -0.34 2.72 0 0 Z " fill="#0D2560" transform="translate(70,14)"/>
<path d="M0 0 C13.00493838 1.28816039 26.00467981 2.61814469 39 4 C37.74609375 5.484375 37.74609375 5.484375 36 7 C32.50755979 7.22174224 29.50091751 7.39721566 26.12084961 6.50268555 C21.93044034 5.50947124 17.49600976 5.63197063 13.19921875 5.48242188 C9.36562848 5.30450569 6.26119742 5.14232915 3 3 C3 2.34 3 1.68 3 1 C2.01 0.67 1.02 0.34 0 0 Z " fill="#8EA3B0" transform="translate(49,62)"/>
<path d="M0 0 C0.33 0.66 0.66 1.32 1 2 C1.66 2 2.32 2 3 2 C1.53967505 7.31027254 -0.98320986 11.46330032 -4 16 C-6.0625 13.75 -6.0625 13.75 -8 11 C-7.8186588 8.00787014 -6.40552069 5.62363861 -5 3 C-4.01 3 -3.02 3 -2 3 C-2 2.34 -2 1.68 -2 1 C-1.34 0.67 -0.68 0.34 0 0 Z " fill="#D7DFDF" transform="translate(19,6)"/>
<path d="M0 0 C2 2 2 2 2.25 5.3125 C2.01581977 8.76665842 1.35425297 10.87769455 0 14 C-2.60444348 14.05394705 -5.20776998 14.09364469 -7.8125 14.125 C-8.55048828 14.14175781 -9.28847656 14.15851562 -10.04882812 14.17578125 C-13.91246426 14.21074628 -15.70903668 14.19397555 -19 12 C-18.6875 9.125 -18.6875 9.125 -18 6 C-17.01 5.34 -16.02 4.68 -15 4 C-14.34 3.01 -13.68 2.02 -13 1 C-12.80842203 5.88523811 -13.12595954 8.31489886 -15 13 C-10.71 13 -6.42 13 -2 13 C-1.34 8.71 -0.68 4.42 0 0 Z " fill="#0C53C5" transform="translate(54,40)"/>
<path d="M0 0 C11.69203687 0.74671832 23.34157478 1.85351587 35 3 C35.33 2.01 35.66 1.02 36 0 C36 1.32 36 2.64 36 4 C24.92584279 5.42892351 13.94674603 5.66195255 3 3 C1.08984375 1.42578125 1.08984375 1.42578125 0 0 Z " fill="#1F51AE" transform="translate(69,56)"/>
<path d="M0 0 C0.99 0 1.98 0 3 0 C5.00865708 6.50422293 6.38614349 12.1781317 6 19 C6.66 19 7.32 19 8 19 C8 19.99 8 20.98 8 22 C6.35 22 4.7 22 3 22 C2.86722656 20.99839844 2.73445313 19.99679688 2.59765625 18.96484375 C2.41928873 17.62239346 2.2409023 16.27994567 2.0625 14.9375 C1.97548828 14.28072266 1.88847656 13.62394531 1.79882812 12.94726562 C1.22430303 8.62768808 0.62254173 4.31292423 0 0 Z " fill="#1371E0" transform="translate(93,11)"/>
<path d="M0 0 C0.66 0 1.32 0 2 0 C4.38297872 8.78723404 4.38297872 8.78723404 4 13 C2.47073432 14.52926568 1.08477821 14.1296235 -1.04296875 14.1328125 C-2.28336914 14.13474609 -2.28336914 14.13474609 -3.54882812 14.13671875 C-4.41958984 14.13285156 -5.29035156 14.12898438 -6.1875 14.125 C-7.46463867 14.13080078 -7.46463867 14.13080078 -8.76757812 14.13671875 C-13.29183604 14.12972067 -17.54813878 13.91805976 -22 13 C-22 12.67 -22 12.34 -22 12 C-14.74 12 -7.48 12 0 12 C0 8.04 0 4.08 0 0 Z " fill="#04134E" transform="translate(93,32)"/>
<path d="M0 0 C1.32 1.32 2.64 2.64 4 4 C3.67 4.66 3.34 5.32 3 6 C2.34 6 1.68 6 1 6 C1 7.65 1 9.3 1 11 C-3.875 9.25 -3.875 9.25 -5 7 C-5.66 7.66 -6.32 8.32 -7 9 C-8.125 7.25 -8.125 7.25 -9 5 C-8.125 2.75 -8.125 2.75 -7 1 C-6.67 1.66 -6.34 2.32 -6 3 C-4.02 2.01 -2.04 1.02 0 0 Z " fill="#1479ED" transform="translate(28,32)"/>
<path d="M0 0 C1.11375 0.928125 1.11375 0.928125 2.25 1.875 C4.48801188 3.60437281 6.43739987 4.86106661 9 6 C8.67 6.66 8.34 7.32 8 8 C5.9375 8.625 5.9375 8.625 4 9 C4.66 9.66 5.32 10.32 6 11 C3 11 3 11 1 10 C0.67 10.66 0.34 11.32 0 12 C0 11.01 0 10.02 0 9 C-1.32 9 -2.64 9 -4 9 C-2.80100302 5.9168649 -1.52299523 2.93720508 0 0 Z " fill="#1966C9" transform="translate(25,15)"/>
<path d="M0 0 C1.625 1.75 1.625 1.75 1.625 4.75 C2.615 6.235 2.615 6.235 3.625 7.75 C2.965 7.75 2.305 7.75 1.625 7.75 C1.80964366 12.09184202 1.80964366 12.09184202 3.625 15.75 C3.76615161 18.42058851 3.66747107 21.07432238 3.625 23.75 C1.2817955 20.23519325 0.47132099 16.79357331 -0.5 12.75 C-0.68175781 12.02554687 -0.86351563 11.30109375 -1.05078125 10.5546875 C-1.78800797 7.55035004 -2.375 4.85482716 -2.375 1.75 C-4.355 1.75 -6.335 1.75 -8.375 1.75 C-8.375 1.09 -8.375 0.43 -8.375 -0.25 C-3.0190678 -1.58898305 -3.0190678 -1.58898305 0 0 Z " fill="#BDD6EA" transform="translate(99.375,7.25)"/>
<path d="M0 0 C2.875 -0.125 2.875 -0.125 6 0 C6.66 0.66 7.32 1.32 8 2 C10.89967757 2.30675232 13.71783178 2.51173371 16.625 2.625 C17.42679688 2.66367187 18.22859375 2.70234375 19.0546875 2.7421875 C21.03607556 2.83653931 23.01800645 2.91936215 25 3 C24.01 4.485 24.01 4.485 23 6 C20.98461914 6.28051758 20.98461914 6.28051758 18.53515625 6.14453125 C17.65279297 6.09876953 16.77042969 6.05300781 15.86132812 6.00585938 C14.93771484 5.94205078 14.01410156 5.87824219 13.0625 5.8125 C12.14275391 5.76802734 11.22300781 5.72355469 10.27539062 5.67773438 C3.40800383 5.27200255 3.40800383 5.27200255 0 3 C0 2.01 0 1.02 0 0 Z " fill="#063182" transform="translate(69,43)"/>
<path d="M0 0 C1 3 1 3 0.00390625 5.26171875 C-0.47175781 6.06222656 -0.94742187 6.86273438 -1.4375 7.6875 C-1.91058594 8.49574219 -2.38367187 9.30398437 -2.87109375 10.13671875 C-3.42990234 11.05904297 -3.42990234 11.05904297 -4 12 C-7 12 -7 12 -10 11 C-10 10.34 -10 9.68 -10 9 C-10.66 9 -11.32 9 -12 9 C-11.34 7.68 -10.68 6.36 -10 5 C-7.69 5.66 -5.38 6.32 -3 7 C-2.87625 6.030625 -2.7525 5.06125 -2.625 4.0625 C-2.41875 3.051875 -2.2125 2.04125 -2 1 C-1.34 0.67 -0.68 0.34 0 0 Z " fill="#CAD5D8" transform="translate(13,22)"/>
<path d="M0 0 C0 0.99 0 1.98 0 3 C-6.6 2.34 -13.2 1.68 -20 1 C-20 0.34 -20 -0.32 -20 -1 C-13.57134036 -3.14288655 -6.20119872 -2.68159945 0 0 Z " fill="#072E7B" transform="translate(69,59)"/>
<path d="M0 0 C1.21724428 3.95604392 1.89679663 8.20640675 0 12 C1.32 12.33 2.64 12.66 4 13 C2.33657163 14.66342837 0.2174291 14.36048097 -2.0625 14.5625 C-2.98160156 14.64628906 -3.90070312 14.73007812 -4.84765625 14.81640625 C-5.55792969 14.87699219 -6.26820313 14.93757813 -7 15 C-7 14.34 -7 13.68 -7 13 C-8.98 13 -10.96 13 -13 13 C-12.67 12.01 -12.34 11.02 -12 10 C-12 10.66 -12 11.32 -12 12 C-9.36 12 -6.72 12 -4 12 C-3.8453125 10.9790625 -3.8453125 10.9790625 -3.6875 9.9375 C-2.85274981 6.37084011 -1.50527246 3.33777806 0 0 Z " fill="#1E408B" transform="translate(13,38)"/>
<path d="M0 0 C-0.33 3.63 -0.66 7.26 -1 11 C-1.33 11 -1.66 11 -2 11 C-2 9.35 -2 7.7 -2 6 C-2.66 6 -3.32 6 -4 6 C-4 8.31 -4 10.62 -4 13 C-5.65 13.33 -7.3 13.66 -9 14 C-8.34 13.34 -7.68 12.68 -7 12 C-6.75684344 9.33050591 -6.75684344 9.33050591 -6.875 6.375 C-6.89304687 5.37210938 -6.91109375 4.36921875 -6.9296875 3.3359375 C-6.95289062 2.56507812 -6.97609375 1.79421875 -7 1 C-1.125 0 -1.125 0 0 0 Z " fill="#2B56A5" transform="translate(103,33)"/>
<path d="M0 0 C1.65 1.32 3.3 2.64 5 4 C4.45276317 7.37462715 3.9451 9.08235 2 12 C-0.97 11.505 -0.97 11.505 -4 11 C-2.7874262 7.27566618 -1.49140021 3.62197194 0 0 Z " fill="#326DC0" transform="translate(14,22)"/>
<path d="M0 0 C0.66 0 1.32 0 2 0 C2.50546036 2.08201528 3.00416835 4.16567067 3.5 6.25 C3.7784375 7.41015625 4.056875 8.5703125 4.34375 9.765625 C5 13 5 13 5 17 C3.68 16.67 2.36 16.34 1 16 C1.33 15.67 1.66 15.34 2 15 C1.8237956 12.96128755 1.8237956 12.96128755 1 11 C0.01 10.67 -0.98 10.34 -2 10 C-1.54177532 6.53058454 -1.10868317 3.32604951 0 0 Z " fill="#01092B" transform="translate(109,46)"/>
<path d="M0 0 C1.65 0 3.3 0 5 0 C5.33 5.94 5.66 11.88 6 18 C3.03 17.67 0.06 17.34 -3 17 C-1.68 16.67 -0.36 16.34 1 16 C2.17327203 11.16025288 2.9302313 6.26743879 1 1.5625 C0.67 1.046875 0.34 0.53125 0 0 Z " fill="#0C2767" transform="translate(53,38)"/>
<path d="M0 0 C0.66 0 1.32 0 2 0 C2 0.66 2 1.32 2 2 C2.66 2 3.32 2 4 2 C4 2.66 4 3.32 4 4 C4.99 4.33 5.98 4.66 7 5 C5.02 8.63 3.04 12.26 1 16 C0.67 16 0.34 16 0 16 C0 10.72 0 5.44 0 0 Z M1 2 C2 4 2 4 2 4 Z " fill="#BCC3C5" transform="translate(0,32)"/>
<path d="M0 0 C2.05078125 0.03255208 4.1015625 0.06510417 6.15234375 0.09765625 C5.90234375 2.47265625 5.90234375 2.47265625 5.15234375 5.09765625 C3.40234375 6.47265625 3.40234375 6.47265625 1.15234375 7.09765625 C-1.59765625 6.72265625 -1.59765625 6.72265625 -3.84765625 6.09765625 C-2.77957394 0.14691194 -2.77957394 0.14691194 0 0 Z " fill="#BACAD1" transform="translate(17.84765625,59.90234375)"/>
<path d="M0 0 C1.66611905 -0.042721 3.33382885 -0.04063832 5 0 C6 1 6 1 6.09765625 3.50390625 C6.08605469 4.51324219 6.07445312 5.52257812 6.0625 6.5625 C6.05347656 7.57441406 6.04445313 8.58632813 6.03515625 9.62890625 C6.02355469 10.41136719 6.01195312 11.19382812 6 12 C5.67 11.01 5.34 10.02 5 9 C1.04 9 -2.92 9 -7 9 C-7 8.67 -7 8.34 -7 8 C-4.36 8 -1.72 8 1 8 C0.67 5.36 0.34 2.72 0 0 Z " fill="#14387C" transform="translate(55,16)"/>
<path d="M0 0 C3.93743833 -0.05797565 7.87476719 -0.09358789 11.8125 -0.125 C12.93205078 -0.14175781 14.05160156 -0.15851562 15.20507812 -0.17578125 C16.27822266 -0.18222656 17.35136719 -0.18867188 18.45703125 -0.1953125 C19.9416687 -0.21102295 19.9416687 -0.21102295 21.45629883 -0.22705078 C24 0 24 0 27 2 C17.76 2.33 8.52 2.66 -1 3 C-0.67 2.01 -0.34 1.02 0 0 Z " fill="#001345" transform="translate(43,9)"/>
<path d="M0 0 C3.3 0 6.6 0 10 0 C10 0.99 10 1.98 10 3 C12.31 3 14.62 3 17 3 C17 3.33 17 3.66 17 4 C7.595 4.495 7.595 4.495 -2 5 C-1.34 3.35 -0.68 1.7 0 0 Z " fill="#02103A" transform="translate(24,6)"/>
<path d="M0 0 C2.64 0 5.28 0 8 0 C8.66 1.98 9.32 3.96 10 6 C8 8 8 8 5.375 8.125 C4.59125 8.08375 3.8075 8.0425 3 8 C2.814375 6.8553125 2.814375 6.8553125 2.625 5.6875 C2.11897208 2.79732864 2.11897208 2.79732864 0 0 Z " fill="#1990F9" transform="translate(45,15)"/>
<path d="M0 0 C0.33 0 0.66 0 1 0 C1.04254356 1.99954746 1.04080783 4.00041636 1 6 C0 7 0 7 -3.16015625 7.09765625 C-5.09181641 7.08025391 -5.09181641 7.08025391 -7.0625 7.0625 C-8.35285156 7.05347656 -9.64320312 7.04445313 -10.97265625 7.03515625 C-11.97167969 7.02355469 -12.97070312 7.01195312 -14 7 C-14 6.01 -14 5.02 -14 4 C-9.71 4 -5.42 4 -1 4 C-0.67 2.68 -0.34 1.36 0 0 Z " fill="#011451" transform="translate(83,28)"/>
<path d="M0 0 C5.94 0 11.88 0 18 0 C15 3 15 3 11.20703125 3.29296875 C9.74190067 3.2730801 8.27691633 3.23737968 6.8125 3.1875 C6.06291016 3.17396484 5.31332031 3.16042969 4.54101562 3.14648438 C2.69370233 3.11118539 0.84675934 3.05737917 -1 3 C-0.67 2.01 -0.34 1.02 0 0 Z " fill="#073A97" transform="translate(42,28)"/>
<path d="M0 0 C6.74233419 -0.12910853 13.30386804 0.202163 20 1 C19.67 1.66 19.34 2.32 19 3 C9.595 3.495 9.595 3.495 0 4 C0 2.68 0 1.36 0 0 Z " fill="#020A35" transform="translate(38,24)"/>
<path d="M0 0 C1.231394 2.46278801 1.07159196 4.2795055 1 7 C0.38382813 7.0309375 -0.23234375 7.061875 -0.8671875 7.09375 C-3.3351221 7.84762432 -3.3351221 7.84762432 -4.1953125 10.90625 C-4.50210937 12.0921875 -4.80890625 13.278125 -5.125 14.5 C-5.69865153 16.68082401 -6.31293723 18.85220713 -7 21 C-7.66 21.33 -8.32 21.66 -9 22 C-8.34 17.71 -7.68 13.42 -7 9 C-6.34 9 -5.68 9 -5 9 C-4.5978125 7.6078125 -4.5978125 7.6078125 -4.1875 6.1875 C-3.08851629 3.23759634 -2.37581439 1.94384814 0 0 Z " fill="#2968C2" transform="translate(36,29)"/>
<path d="M0 0 C0.33 0 0.66 0 1 0 C1.67507066 3.06070934 2.33854922 6.1238209 3 9.1875 C3.19078125 10.05181641 3.3815625 10.91613281 3.578125 11.80664062 C3.75859375 12.64775391 3.9390625 13.48886719 4.125 14.35546875 C4.29257813 15.12528076 4.46015625 15.89509277 4.6328125 16.68823242 C5.02550915 19.16060247 5.06185285 21.50075809 5 24 C2.03 23.67 -0.94 23.34 -4 23 C-4 22.67 -4 22.34 -4 22 C-1.69 22 0.62 22 3 22 C2.7834375 21.0821875 2.566875 20.164375 2.34375 19.21875 C0.86153096 12.68600681 -0.4021742 6.70290331 0 0 Z " fill="#0A3382" transform="translate(102,38)"/>
<path d="M0 0 C1.98 0 3.96 0 6 0 C6 1.32 6 2.64 6 4 C7.32 4.66 8.64 5.32 10 6 C6.7 6.33 3.4 6.66 0 7 C0 4.69 0 2.38 0 0 Z " fill="#1350AD" transform="translate(0,51)"/>
<path d="M0 0 C4.29 0 8.58 0 13 0 C12.67 1.32 12.34 2.64 12 4 C10.37509046 4.02698189 8.75005367 4.04638757 7.125 4.0625 C5.76761719 4.07990234 5.76761719 4.07990234 4.3828125 4.09765625 C2 4 2 4 0 3 C0 2.01 0 1.02 0 0 Z " fill="#0A45A4" transform="translate(69,35)"/>
<path d="M0 0 C2.31 0.33 4.62 0.66 7 1 C7.33 1.99 7.66 2.98 8 4 C7.67 4.66 7.34 5.32 7 6 C3.04 6 -0.92 6 -5 6 C-3.68 5.01 -2.36 4.02 -1 3 C-0.67 2.01 -0.34 1.02 0 0 Z " fill="#B9CAD2" transform="translate(88,66)"/>
<path d="M0 0 C2.64 0 5.28 0 8 0 C7.67 0.99 7.34 1.98 7 3 C-3.56 3 -14.12 3 -25 3 C-25 2.67 -25 2.34 -25 2 C-12.625 1.505 -12.625 1.505 0 1 C0 0.67 0 0.34 0 0 Z " fill="#BABDCB" transform="translate(75,4)"/>
<path d="M0 0 C0 0.66 0 1.32 0 2 C0.66 2.66 1.32 3.32 2 4 C-1.33333333 3.33333333 -4.66666667 2.66666667 -8 2 C-7.67 2.66 -7.34 3.32 -7 4 C-6.960008 5.99960012 -6.95653201 8.00047242 -7 10 C-10.3 10 -13.6 10 -17 10 C-17 9.67 -17 9.34 -17 9 C-13.535 8.505 -13.535 8.505 -10 8 C-9.67 6.35 -9.34 4.7 -9 3 C-9.66 2.67 -10.32 2.34 -11 2 C-7.17679443 0.57741188 -4.08718695 -0.24042276 0 0 Z " fill="#2792F1" transform="translate(63,14)"/>
<path d="M0 0 C0.33 0 0.66 0 1 0 C1.33808686 2.06172613 1.67027361 4.1244203 2 6.1875 C2.185625 7.33605469 2.37125 8.48460937 2.5625 9.66796875 C2.93489477 12.50415393 3.08596021 15.14719564 3 18 C3.66 18.33 4.32 18.66 5 19 C1.37 19 -2.26 19 -6 19 C-6 18.67 -6 18.34 -6 18 C-4.02 18 -2.04 18 0 18 C0 12.06 0 6.12 0 0 Z " fill="#123B8B" transform="translate(90,26)"/>
<path d="M0 0 C2.9375 0.8125 2.9375 0.8125 6 2 C6.33 2.99 6.66 3.98 7 5 C6.01 5.33 5.02 5.66 4 6 C3.67 7.65 3.34 9.3 3 11 C2.01 11 1.02 11 0 11 C0 7.37 0 3.74 0 0 Z " fill="#67777A" transform="translate(0,10)"/>
<path d="M0 0 C2.97 0 5.94 0 9 0 C8.67 1.98 8.34 3.96 8 6 C6.35 6.33 4.7 6.66 3 7 C2.01 4.69 1.02 2.38 0 0 Z " fill="#2074D6" transform="translate(32,11)"/>
<path d="M0 0 C2.64 0.33 5.28 0.66 8 1 C8 2.65 8 4.3 8 6 C2.58461538 6.36923077 2.58461538 6.36923077 -0.375 4.5 C-0.91125 4.005 -1.4475 3.51 -2 3 C-1.34 3 -0.68 3 0 3 C0 2.01 0 1.02 0 0 Z " fill="#C8D2D9" transform="translate(120,66)"/>
<path d="M0 0 C1.98 0 3.96 0 6 0 C6.66 1.98 7.32 3.96 8 6 C6.824375 6.2165625 6.824375 6.2165625 5.625 6.4375 C3.03578982 6.87798925 3.03578982 6.87798925 1 8 C0 2.25 0 2.25 0 0 Z " fill="#D5DCE2" transform="translate(107,22)"/>
<path d="M0 0 C0.33 0 0.66 0 1 0 C1 1.65 1 3.3 1 5 C3.31 5.66 5.62 6.32 8 7 C8 7.99 8 8.98 8 10 C2.58461538 10.36923077 2.58461538 10.36923077 -0.375 8.5 C-0.91125 8.005 -1.4475 7.51 -2 7 C-1.125 2.25 -1.125 2.25 0 0 Z " fill="#091747" transform="translate(17,17)"/>
<path d="M0 0 C0 0.66 0 1.32 0 2 C0.66 2.33 1.32 2.66 2 3 C-3.50594703 5.75297351 -10.33805068 3.43795538 -16 2 C-16 1.67 -16 1.34 -16 1 C-14.08351538 0.83125293 -12.16680367 0.66508357 -10.25 0.5 C-9.18265625 0.4071875 -8.1153125 0.314375 -7.015625 0.21875 C-4.6820782 0.04947717 -2.33967818 0 0 0 Z " fill="#144390" transform="translate(96,63)"/>
<path d="M0 0 C1.37432457 3.81756824 0.67975039 7.07255329 0 11 C-1.65 11 -3.3 11 -5 11 C-4.74445946 9.53890937 -4.46999628 8.08111904 -4.1875 6.625 C-4.03667969 5.81289063 -3.88585937 5.00078125 -3.73046875 4.1640625 C-3 2 -3 2 0 0 Z " fill="#040B35" transform="translate(33,42)"/>
<path d="M0 0 C-0.66 0 -1.32 0 -2 0 C-2 0.99 -2 1.98 -2 3 C-4.70879335 4.35439668 -7.00933268 4.06501451 -10 4 C-9.25 1.5625 -9.25 1.5625 -8 -1 C-4.76989336 -2.61505332 -2.97559797 -1.80661305 0 0 Z " fill="#C3D1DA" transform="translate(51,64)"/>
<path d="M0 0 C0.144375 0.639375 0.28875 1.27875 0.4375 1.9375 C0.81007181 3.97545146 0.81007181 3.97545146 2 5 C4.33297433 5.04092937 6.66705225 5.04241723 9 5 C9 5.99 9 6.98 9 8 C7.22950311 8.05410687 5.45853151 8.09284119 3.6875 8.125 C2.20830078 8.15980469 2.20830078 8.15980469 0.69921875 8.1953125 C-2 8 -2 8 -5 6 C-4.67 5.34 -4.34 4.68 -4 4 C-3.34 4 -2.68 4 -2 4 C-1.34 2.68 -0.68 1.36 0 0 Z " fill="#0E57C5" transform="translate(18,44)"/>
<path d="M0 0 C0.66 0.33 1.32 0.66 2 1 C1.67 1.99 1.34 2.98 1 4 C-4.28 4 -9.56 4 -15 4 C-14.67 3.34 -14.34 2.68 -14 2 C-11.6015625 1.62109375 -11.6015625 1.62109375 -8.625 1.4375 C-5.46357425 1.23313343 -3.01866352 1.00622117 0 0 Z " fill="#1474ED" transform="translate(84,38)"/>
<path d="M0 0 C1.12921875 0.10699219 2.2584375 0.21398438 3.421875 0.32421875 C5.10023437 0.47310547 5.10023437 0.47310547 6.8125 0.625 C9.95665203 0.98694308 13.05610117 1.45937703 16.171875 2.01171875 C16.171875 2.34171875 16.171875 2.67171875 16.171875 3.01171875 C11.05944318 3.95261676 6.85779564 3.90372495 1.734375 3.07421875 C0.49816406 2.87957031 -0.73804688 2.68492188 -2.01171875 2.484375 C-2.94113281 2.32839844 -3.87054688 2.17242187 -4.828125 2.01171875 C-2.828125 0.01171875 -2.828125 0.01171875 0 0 Z " fill="#0D439C" transform="translate(38.828125,57.98828125)"/>
<path d="M0 0 C3.96 0 7.92 0 12 0 C12 0.33 12 0.66 12 1 C10.7934375 1.185625 10.7934375 1.185625 9.5625 1.375 C8.716875 1.58125 7.87125 1.7875 7 2 C6.67 2.66 6.34 3.32 6 4 C3.03 4 0.06 4 -3 4 C-3 3.34 -3 2.68 -3 2 C-2.01 2 -1.02 2 0 2 C0 1.34 0 0.68 0 0 Z " fill="#E0E7E8" transform="translate(26,0)"/>
<path d="M0 0 C6.4 -0.49230769 6.4 -0.49230769 9.4375 2 C10.2109375 2.99 10.2109375 2.99 11 4 C7.37 4 3.74 4 0 4 C0 2.68 0 1.36 0 0 Z " fill="#3E4B5D" transform="translate(0,68)"/>
<path d="M0 0 C0.99 0.495 0.99 0.495 2 1 C2.33333333 3.33333333 2.66666667 5.66666667 3 8 C3.66 8.33 4.32 8.66 5 9 C5.33 8.34 5.66 7.68 6 7 C6.33 9.31 6.66 11.62 7 14 C5.35 14 3.7 14 2 14 C1.66179834 12.4176994 1.32964061 10.83410625 1 9.25 C0.814375 8.36828125 0.62875 7.4865625 0.4375 6.578125 C0 4 0 4 0 0 Z " fill="#000B37" transform="translate(105,48)"/>
<path d="M0 0 C3.96 0 7.92 0 12 0 C12 0.99 12 1.98 12 3 C8.04 3 4.08 3 0 3 C0 2.01 0 1.02 0 0 Z " fill="#010630" transform="translate(70,15)"/>
<path d="M0 0 C5.28 0 10.56 0 16 0 C16 0.33 16 0.66 16 1 C13.69 1 11.38 1 9 1 C9 1.99 9 2.98 9 4 C6.03 3.67 3.06 3.34 0 3 C0 2.01 0 1.02 0 0 Z " fill="#202949" transform="translate(34,6)"/>
<path d="M0 0 C2.97 0 5.94 0 9 0 C8.34 2.31 7.68 4.62 7 7 C5.35 7.33 3.7 7.66 2 8 C1.67 7.34 1.34 6.68 1 6 C1.66 5.67 2.32 5.34 3 5 C3.33 4.01 3.66 3.02 4 2 C2.68 2 1.36 2 0 2 C0 1.34 0 0.68 0 0 Z " fill="#D7DEDC" transform="translate(88,0)"/>
<path d="M0 0 C0.66 0 1.32 0 2 0 C2.33 1.98 2.66 3.96 3 6 C1.35 6.33 -0.3 6.66 -2 7 C-2.99 5.68 -3.98 4.36 -5 3 C-3.68 3 -2.36 3 -1 3 C-0.67 2.01 -0.34 1.02 0 0 Z " fill="#021A52" transform="translate(32,13)"/>
<path d="M0 0 C0.763125 0.0825 1.52625 0.165 2.3125 0.25 C1.80646008 2.41874252 1.31266187 4.24967627 0.3125 6.25 C-1.3375 6.25 -2.9875 6.25 -4.6875 6.25 C-5.0175 5.59 -5.3475 4.93 -5.6875 4.25 C-3.34903846 0.31153846 -3.34903846 0.31153846 0 0 Z " fill="#1F3F6B" transform="translate(30.6875,9.75)"/>
<path d="M0 0 C1.98 0 3.96 0 6 0 C7.58706842 4.1077065 8.10191901 5.59232396 7 10 C6.34 7.36 5.68 4.72 5 2 C4.01 2 3.02 2 2 2 C2.33 4.31 2.66 6.62 3 9 C2.34 9 1.68 9 1 9 C0.67 6.03 0.34 3.06 0 0 Z " fill="#3881CD" transform="translate(91,9)"/>
<path d="M0 0 C1.28132813 0.00902344 2.56265625 0.01804688 3.8828125 0.02734375 C4.87023438 0.03894531 5.85765625 0.05054688 6.875 0.0625 C6.875 0.3925 6.875 0.7225 6.875 1.0625 C3.905 1.0625 0.935 1.0625 -2.125 1.0625 C-2.125 1.7225 -2.125 2.3825 -2.125 3.0625 C-1.135 3.3925 -0.145 3.7225 0.875 4.0625 C-2.425 3.7325 -5.725 3.4025 -9.125 3.0625 C-9.125 2.4025 -9.125 1.7425 -9.125 1.0625 C-6.12186252 -0.43906874 -3.33432478 -0.03031204 0 0 Z " fill="#093C91" transform="translate(15.125,51.9375)"/>
<path d="M0 0 C2 2 2 2 2.25 5.3125 C2.01863452 8.72514084 1.4765288 10.95465935 0 14 C-1.32 13.67 -2.64 13.34 -4 13 C-3.34 13 -2.68 13 -2 13 C-1.34 8.71 -0.68 4.42 0 0 Z " fill="#18449A" transform="translate(54,40)"/>
<path d="M0 0 C0.66 0 1.32 0 2 0 C1.67925956 1.33641852 1.34135927 2.66869885 1 4 C0.71125 5.19625 0.4225 6.3925 0.125 7.625 C-1 11 -1 11 -4 13 C-4 10.69 -4 8.38 -4 6 C-3.01 6 -2.02 6 -1 6 C-1.33 5.01 -1.66 4.02 -2 3 C-1.34 2.01 -0.68 1.02 0 0 Z " fill="#ACB7BB" transform="translate(4,15)"/>
<path d="M0 0 C0.12375 0.928125 0.12375 0.928125 0.25 1.875 C0.81258459 4.18437567 0.81258459 4.18437567 3.0625 5.25 C3.701875 5.4975 4.34125 5.745 5 6 C5 6.33 5 6.66 5 7 C2.9160597 6.88556397 0.83283507 6.75804453 -1.25 6.625 C-2.41015625 6.55539063 -3.5703125 6.48578125 -4.765625 6.4140625 C-7.70694334 6.03751692 -9.49949011 5.5225877 -12 4 C-10.02 3.67 -8.04 3.34 -6 3 C-6 3.66 -6 4.32 -6 5 C-4.02 5 -2.04 5 0 5 C0 3.35 0 1.7 0 0 Z " fill="#234992" transform="translate(34,48)"/>
<path d="M0 0 C6.93 0.33 13.86 0.66 21 1 C21 1.33 21 1.66 21 2 C19.4221875 2.2165625 19.4221875 2.2165625 17.8125 2.4375 C14.20182613 2.86717324 14.20182613 2.86717324 11.625 3.75 C7.44568918 4.1480296 3.86359606 2.48988345 0 1 C0 0.67 0 0.34 0 0 Z " fill="#8BA8C2" transform="translate(2,58)"/>
<path d="M0 0 C0.99 0.33 1.98 0.66 3 1 C2.01 4.3 1.02 7.6 0 11 C-0.66 11 -1.32 11 -2 11 C-1.85957123 9.35369672 -1.71250671 7.70795821 -1.5625 6.0625 C-1.48128906 5.14597656 -1.40007813 4.22945312 -1.31640625 3.28515625 C-1 1 -1 1 0 0 Z " fill="#0B53C2" transform="translate(15,36)"/>
<path d="M0 0 C0.33 0.99 0.66 1.98 1 3 C2.32 3.33 3.64 3.66 5 4 C4.01 7.96 3.02 11.92 2 16 C1.67 16 1.34 16 1 16 C1 12.7 1 9.4 1 6 C0.34 6 -0.32 6 -1 6 C-0.67 4.02 -0.34 2.04 0 0 Z " fill="#051750" transform="translate(32,37)"/>
<path d="M0 0 C0.66 0 1.32 0 2 0 C2 1.32 2 2.64 2 4 C3.423125 3.690625 3.423125 3.690625 4.875 3.375 C5.90625 3.25125 6.9375 3.1275 8 3 C8.66 3.66 9.32 4.32 10 5 C6.26562152 5.87867729 2.83225427 6.08912219 -1 6 C-0.67 4.02 -0.34 2.04 0 0 Z " fill="#1370E0" transform="translate(67,18)"/>
<path d="M0 0 C0.99 0 1.98 0 3 0 C3.85298376 3.67387495 4.10789471 7.0447393 4.0625 10.8125 C4.05347656 11.78832031 4.04445313 12.76414062 4.03515625 13.76953125 C4.02355469 14.50558594 4.01195313 15.24164063 4 16 C2.06757715 12.65479742 1.4536147 9.55232518 0.875 5.75 C0.70742187 4.67234375 0.53984375 3.5946875 0.3671875 2.484375 C0.24601562 1.66453125 0.12484375 0.8446875 0 0 Z " fill="#2D66B8" transform="translate(92,18)"/>
<path d="M0 0 C4.62 0.66 9.24 1.32 14 2 C14 2.66 14 3.32 14 4 C9.38 4 4.76 4 0 4 C0 2.68 0 1.36 0 0 Z " fill="#0A3D94" transform="translate(69,18)"/>
<path d="M0 0 C2 1 2 1 4 4 C4.125 6.6875 4.125 6.6875 4 9 C0.78548731 10.60725635 -2.43612536 10.05748185 -6 10 C-5.01 9.67 -4.02 9.34 -3 9 C-2.67 8.34 -2.34 7.68 -2 7 C-0.68 7.33 0.64 7.66 2 8 C1.67 7.4225 1.34 6.845 1 6.25 C0 4 0 4 0 0 Z " fill="#1E6ED0" transform="translate(44,14)"/>
<path d="M0 0 C1.41623216 -0.05447047 2.83308191 -0.09300508 4.25 -0.125 C5.03890625 -0.14820312 5.8278125 -0.17140625 6.640625 -0.1953125 C9.20731941 0.0171622 10.7916067 0.71345895 13 2 C10.36 2 7.72 2 5 2 C5 2.99 5 3.98 5 5 C4.01 5 3.02 5 2 5 C1.34 3.35 0.68 1.7 0 0 Z " fill="#A6B2B1" transform="translate(64,67)"/>
<path d="M0 0 C2.31 0 4.62 0 7 0 C4.53846154 4.8 4.53846154 4.8 1.8125 5.8125 C1.214375 5.874375 0.61625 5.93625 0 6 C0 4.02 0 2.04 0 0 Z " fill="#C3CECD" transform="translate(0,0)"/>
<path d="M0 0 C0.66 0 1.32 0 2 0 C3.60725635 3.21451269 3.05748185 6.43612536 3 10 C2.01 9.67 1.02 9.34 0 9 C0 6.03 0 3.06 0 0 Z " fill="#080E3B" transform="translate(93,32)"/>
<path d="M0 0 C0.33 0.66 0.66 1.32 1 2 C1.66 2 2.32 2 3 2 C2.34 3.65 1.68 5.3 1 7 C-3.875 5.25 -3.875 5.25 -5 3 C-4.01 3 -3.02 3 -2 3 C-2 2.34 -2 1.68 -2 1 C-1.34 0.67 -0.68 0.34 0 0 Z " fill="#E1E7EA" transform="translate(19,6)"/>
<path d="M0 0 C1.21724428 3.95604392 1.89679663 8.20640675 0 12 C-0.99 12 -1.98 12 -3 12 C-2.49202991 7.6822542 -1.80317221 3.96697886 0 0 Z " fill="#0E46A2" transform="translate(13,38)"/>
<path d="M0 0 C0.598125 0.350625 1.19625 0.70125 1.8125 1.0625 C0.1670622 2.75012851 -1.50038577 4.4165349 -3.1875 6.0625 C-3.5175 6.0625 -3.8475 6.0625 -4.1875 6.0625 C-4.5175 4.0825 -4.8475 2.1025 -5.1875 0.0625 C-2.1875 -0.9375 -2.1875 -0.9375 0 0 Z " fill="#1260D6" transform="translate(66.1875,44.9375)"/>
<path d="M0 0 C0.33 0 0.66 0 1 0 C0.85923685 1.9587043 0.7122324 3.91696093 0.5625 5.875 C0.48128906 6.96554688 0.40007813 8.05609375 0.31640625 9.1796875 C0 12 0 12 -1 14 C-1.66 14 -2.32 14 -3 14 C-3.48990279 8.93767116 -1.7106322 4.67369154 0 0 Z " fill="#0C51BA" transform="translate(53,39)"/>
<path d="M0 0 C1.32 0.33 2.64 0.66 4 1 C3.3125 3.4375 3.3125 3.4375 2 6 C-0.625 6.8125 -0.625 6.8125 -3 7 C-2.01 4.69 -1.02 2.38 0 0 Z " fill="#0F1632" transform="translate(8,34)"/>
<path d="M0 0 C3.96 0.33 7.92 0.66 12 1 C11.01 2.485 11.01 2.485 10 4 C9.34 4 8.68 4 8 4 C8 3.34 8 2.68 8 2 C5.36 2.33 2.72 2.66 0 3 C0 2.01 0 1.02 0 0 Z " fill="#073080" transform="translate(88,61)"/>
<path d="M0 0 C2.97 0 5.94 0 9 0 C8.625 2.9375 8.625 2.9375 8 6 C7.01 6.495 7.01 6.495 6 7 C6 5.68 6 4.36 6 3 C5.195625 2.87625 4.39125 2.7525 3.5625 2.625 C2.716875 2.41875 1.87125 2.2125 1 2 C0.67 1.34 0.34 0.68 0 0 Z " fill="#156FDB" transform="translate(77,21)"/>
<path d="M0 0 C1.32 0.66 2.64 1.32 4 2 C2.86695008 5.39914975 1.87481525 6.05254451 -1 8 C-1.93065133 5.39417629 -2.14917407 4.35801776 -1.0625 1.75 C-0.711875 1.1725 -0.36125 0.595 0 0 Z " fill="#D9E2E6" transform="translate(105,7)"/>
<path d="M0 0 C0.33 0.99 0.66 1.98 1 3 C0 4 0 4 -3.37890625 4.09765625 C-4.77347077 4.09098369 -6.16801743 4.07902532 -7.5625 4.0625 C-8.27341797 4.05798828 -8.98433594 4.05347656 -9.71679688 4.04882812 C-11.47790013 4.03700864 -13.23896036 4.01907263 -15 4 C-15 3.67 -15 3.34 -15 3 C-13.75283203 2.92652344 -13.75283203 2.92652344 -12.48046875 2.8515625 C-11.39378906 2.77679687 -10.30710937 2.70203125 -9.1875 2.625 C-8.10855469 2.55539063 -7.02960937 2.48578125 -5.91796875 2.4140625 C-2.81373814 2.18804267 -2.81373814 2.18804267 0 0 Z " fill="#0D55C1" transform="translate(60,28)"/>
<path d="M0 0 C0.99 0 1.98 0 3 0 C3.33 1.98 3.66 3.96 4 6 C3.01 6.33 2.02 6.66 1 7 C0.67 4.69 0.34 2.38 0 0 Z " fill="#187EEB" transform="translate(93,11)"/>
<path d="M0 0 C2.625 -0.1875 2.625 -0.1875 5 0 C5 0.99 5 1.98 5 3 C3.02 3.66 1.04 4.32 -1 5 C-1.33 4.34 -1.66 3.68 -2 3 C-1.34 2.01 -0.68 1.02 0 0 Z " fill="#060D26" transform="translate(24,6)"/>
<path d="M0 0 C1.32 0.66 2.64 1.32 4 2 C3.67 3.32 3.34 4.64 3 6 C0.525 5.01 0.525 5.01 -2 4 C-1.34 2.68 -0.68 1.36 0 0 Z " fill="#011650" transform="translate(26,25)"/>
<path d="M0 0 C1 3 1 3 0.22265625 5.04296875 C-0.16019531 5.75066406 -0.54304687 6.45835938 -0.9375 7.1875 C-1.31777344 7.90292969 -1.69804687 8.61835938 -2.08984375 9.35546875 C-2.54037109 10.16951172 -2.54037109 10.16951172 -3 11 C-4.32342458 7.02972626 -3.36639254 4.88343142 -2 1 C-1.34 0.67 -0.68 0.34 0 0 Z " fill="#C0D8EB" transform="translate(13,22)"/>
<path d="M0 0 C4.29 0.33 8.58 0.66 13 1 C13 1.33 13 1.66 13 2 C11.39679026 2.19551338 9.79237014 2.38111983 8.1875 2.5625 C7.29417969 2.66691406 6.40085937 2.77132812 5.48046875 2.87890625 C3 3 3 3 0 2 C0 1.34 0 0.68 0 0 Z " fill="#829EB3" transform="translate(25,60)"/>
<path d="M0 0 C2.97 0 5.94 0 9 0 C9 0.66 9 1.32 9 2 C6.69 2.33 4.38 2.66 2 3 C2 2.34 2 1.68 2 1 C1.34 0.67 0.68 0.34 0 0 Z " fill="#0A367F" transform="translate(36,55)"/>
<path d="M0 0 C1.98 0 3.96 0 6 0 C5.34 0.66 4.68 1.32 4 2 C4.99 2.99 5.98 3.98 7 5 C4.03 4.505 4.03 4.505 1 4 C0.67 2.68 0.34 1.36 0 0 Z " fill="#053084" transform="translate(69,43)"/>
<path d="M0 0 C0.66 0.33 1.32 0.66 2 1 C2 2.65 2 4.3 2 6 C0.35 6 -1.3 6 -3 6 C-2.42655063 3.13275314 -2.1385485 2.1385485 0 0 Z " fill="#04092E" transform="translate(4,44)"/>
<path d="M0 0 C0.33 0 0.66 0 1 0 C1 1.65 1 3.3 1 5 C1.99 5.33 2.98 5.66 4 6 C2.125 7.0625 2.125 7.0625 0 8 C-0.66 7.67 -1.32 7.34 -2 7 C-1.125 2.25 -1.125 2.25 0 0 Z " fill="#172145" transform="translate(17,17)"/>
<path d="M0 0 C6.50381098 -0.36814024 6.50381098 -0.36814024 8.9375 1.4375 C10 3 10 3 10 4 C8.02 4 6.04 4 4 4 C4.33 3.01 4.66 2.02 5 1 C3.35 1 1.7 1 0 1 C0 0.67 0 0.34 0 0 Z " fill="#1E91FC" transform="translate(58,13)"/>
<path d="M0 0 C0 1.65 0 3.3 0 5 C-1.98 5.99 -3.96 6.98 -6 8 C-3.18918919 0 -3.18918919 0 0 0 Z " fill="#CAD4D4" transform="translate(110,9)"/>
<path d="M0 0 C2.97 0.495 2.97 0.495 6 1 C5.67 2.32 5.34 3.64 5 5 C3.35 5 1.7 5 0 5 C0 3.35 0 1.7 0 0 Z " fill="#A1B0BD" transform="translate(95,67)"/>
<path d="M0 0 C0.66 0 1.32 0 2 0 C2.33 2.64 2.66 5.28 3 8 C2.67 7.34 2.34 6.68 2 6 C-0.02463255 5.34786708 -0.02463255 5.34786708 -2 5 C-1.34 3.35 -0.68 1.7 0 0 Z " fill="#1B1D34" transform="translate(109,46)"/>
<path d="M0 0 C0.33 0.66 0.66 1.32 1 2 C0.67 2.66 0.34 3.32 0 4 C-1.98 4 -3.96 4 -6 4 C-6 3.01 -6 2.02 -6 1 C-4.02 0.67 -2.04 0.34 0 0 Z " fill="#93809C" transform="translate(102,33)"/>
<path d="M0 0 C0.99 0 1.98 0 3 0 C2.49396008 2.16874252 2.00016187 3.99967627 1 6 C0.01 6 -0.98 6 -2 6 C-1.34 4.02 -0.68 2.04 0 0 Z " fill="#7F76A0" transform="translate(15,28)"/>
<path d="M0 0 C0.99 0 1.98 0 3 0 C3.66 1.98 4.32 3.96 5 6 C3.68 5.67 2.36 5.34 1 5 C0.67 3.35 0.34 1.7 0 0 Z " fill="#CCD8D7" transform="translate(110,22)"/>
<path d="M0 0 C0.66 0 1.32 0 2 0 C2 1.32 2 2.64 2 4 C1.01 4 0.02 4 -1 4 C-1.33 5.98 -1.66 7.96 -2 10 C-2.98120464 6.94736336 -2.98120464 5.05263664 -2 2 C-1.34 2 -0.68 2 0 2 C0 1.34 0 0.68 0 0 Z " fill="#2884E3" transform="translate(39,19)"/>
<path d="M0 0 C1.65 0 3.3 0 5 0 C4.67 1.65 4.34 3.3 4 5 C3.01 4.67 2.02 4.34 1 4 C0.3125 1.9375 0.3125 1.9375 0 0 Z " fill="#062057" transform="translate(55,16)"/>
<path d="M0 0 C1.32 0.66 2.64 1.32 4 2 C3.67 3.65 3.34 5.3 3 7 C2.34 6.01 1.68 5.02 1 4 C0.34 4.66 -0.32 5.32 -1 6 C-1.33 5.34 -1.66 4.68 -2 4 C-1.0625 1.875 -1.0625 1.875 0 0 Z " fill="#0E1338" transform="translate(4,41)"/>
<path d="M0 0 C2 2 2 2 2.125 5.125 C2.08375 6.07375 2.0425 7.0225 2 8 C1.01 7.67 0.02 7.34 -1 7 C-1.04254356 5.00045254 -1.04080783 2.99958364 -1 1 C-0.67 0.67 -0.34 0.34 0 0 Z " fill="#040E33" transform="translate(19,15)"/>
<path d="M0 0 C0.33 0.66 0.66 1.32 1 2 C1.66 2 2.32 2 3 2 C3.33 1.34 3.66 0.68 4 0 C4 1.32 4 2.64 4 4 C3.34 4 2.68 4 2 4 C2 6.31 2 8.62 2 11 C1.67 11 1.34 11 1 11 C0.67 7.37 0.34 3.74 0 0 Z " fill="#072C75" transform="translate(88,14)"/>
<path d="M0 0 C0.33 0 0.66 0 1 0 C1.33 2.97 1.66 5.94 2 9 C0.68 8.67 -0.64 8.34 -2 8 C-1.33333333 5.33333333 -0.66666667 2.66666667 0 0 Z " fill="#232130" transform="translate(112,54)"/>
<path d="M0 0 C2.97 0.33 5.94 0.66 9 1 C9 1.33 9 1.66 9 2 C6.36 2.66 3.72 3.32 1 4 C0.67 2.68 0.34 1.36 0 0 Z " fill="#103886" transform="translate(68,58)"/>
<path d="M0 0 C0 0.99 0 1.98 0 3 C-2.31 3 -4.62 3 -7 3 C-7 2.34 -7 1.68 -7 1 C-4 0 -4 0 0 0 Z " fill="#D8E1E6" transform="translate(118,44)"/>
<path d="M0 0 C3 3.625 3 3.625 3 7 C1.35 6.67 -0.3 6.34 -2 6 C-1.34 4.02 -0.68 2.04 0 0 Z " fill="#1069E2" transform="translate(87,36)"/>
<path d="M0 0 C1.98 0 3.96 0 6 0 C6 0.66 6 1.32 6 2 C6.66 2.66 7.32 3.32 8 4 C2.25 3.125 2.25 3.125 0 2 C0 1.34 0 0.68 0 0 Z " fill="#14489C" transform="translate(19,27)"/>
<path d="M0 0 C2.31 0.66 4.62 1.32 7 2 C6.67 3.65 6.34 5.3 6 7 C5.5875 6.566875 5.175 6.13375 4.75 5.6875 C2.93945495 3.94161728 1.03525768 2.47380729 -1 1 C-0.67 0.67 -0.34 0.34 0 0 Z " fill="#187FEE" transform="translate(77,22)"/>
<path d="M0 0 C0.33 0 0.66 0 1 0 C1 1.98 1 3.96 1 6 C-2.3 6 -5.6 6 -9 6 C-9 5.67 -9 5.34 -9 5 C-7.329375 4.87625 -7.329375 4.87625 -5.625 4.75 C-1.94246056 4.42126213 -1.94246056 4.42126213 -0.5625 1.9375 C-0.376875 1.298125 -0.19125 0.65875 0 0 Z " fill="#2F86E1" transform="translate(55,18)"/>
<path d="M0 0 C0.93423645 3.01031744 1.04449911 3.86650268 0 7 C-1.32 7 -2.64 7 -4 7 C-3.67 5.68 -3.34 4.36 -3 3 C-2.34 3 -1.68 3 -1 3 C-0.67 2.01 -0.34 1.02 0 0 Z " fill="#285099" transform="translate(60,17)"/>
<path d="M0 0 C2.475 0.495 2.475 0.495 5 1 C5 1.99 5 2.98 5 4 C3.35 3.67 1.7 3.34 0 3 C0 2.01 0 1.02 0 0 Z " fill="#041B61" transform="translate(41,18)"/>
<path d="M0 0 C2.31 0.33 4.62 0.66 7 1 C7 1.66 7 2.32 7 3 C5.02 3 3.04 3 1 3 C0.67 2.01 0.34 1.02 0 0 Z " fill="#D6E2EB" transform="translate(121,69)"/>
<path d="M0 0 C0.66 0.33 1.32 0.66 2 1 C1.34 2.32 0.68 3.64 0 5 C-0.66 5 -1.32 5 -2 5 C-2.33 5.66 -2.66 6.32 -3 7 C-2.25 2.25 -2.25 2.25 0 0 Z " fill="#0F4BB0" transform="translate(38,41)"/>
<path d="M0 0 C0.66 0 1.32 0 2 0 C2.33 2.64 2.66 5.28 3 8 C2.34 8 1.68 8 1 8 C-0.35439668 5.29120665 -0.06501451 2.99066732 0 0 Z " fill="#0F5CC9" transform="translate(99,39)"/>
<path d="M0 0 C0.99 0.33 1.98 0.66 3 1 C2.67 2.98 2.34 4.96 2 7 C1.34 7 0.68 7 0 7 C-0.38133299 5.0085944 -0.71325582 3.00720923 -1 1 C-0.67 0.67 -0.34 0.34 0 0 Z " fill="#B7CDDB" transform="translate(103,30)"/>
<path d="M0 0 C1.485 0.99 1.485 0.99 3 2 C2.34 3.65 1.68 5.3 1 7 C0.34 6.67 -0.32 6.34 -1 6 C-0.67 4.02 -0.34 2.04 0 0 Z " fill="#D0D9E2" transform="translate(7,28)"/>
<path d="M0 0 C0.66 0.99 1.32 1.98 2 3 C1.23056641 6.15467773 0.67047831 7.58588104 -2.125 9.3125 C-3.053125 9.6528125 -3.053125 9.6528125 -4 10 C-3.525625 9.0925 -3.05125 8.185 -2.5625 7.25 C-1.35371179 4.73572051 -0.52006114 2.70431791 0 0 Z " fill="#BECBCA" transform="translate(4,19)"/>
</svg>
